<?xml version="1.0" encoding="UTF-8" standalone="no"?>
<!-- Created with Inkscape (http://www.inkscape.org/) -->

<svg
   xmlns:dc="http://purl.org/dc/elements/1.1/"
   xmlns:cc="http://creativecommons.org/ns#"
   xmlns:rdf="http://www.w3.org/1999/02/22-rdf-syntax-ns#"
   xmlns:svg="http://www.w3.org/2000/svg"
   xmlns="http://www.w3.org/2000/svg"
   xmlns:sodipodi="http://sodipodi.sourceforge.net/DTD/sodipodi-0.dtd"
   xmlns:inkscape="http://www.inkscape.org/namespaces/inkscape"
   width="200.76494mm"
   height="236.56738mm"
   viewBox="0 0 200.76494 236.56738"
   version="1.1"
   id="svg1124"
   sodipodi:docname="ConventionalMethods.svg"
   inkscape:version="0.92.3 (2405546, 2018-03-11)">
  <defs
     id="defs1118">
    <marker
       inkscape:stockid="Arrow2Sstart"
       orient="auto"
       refY="0"
       refX="0"
       id="Arrow2Sstart"
       style="overflow:visible"
       inkscape:isstock="true">
      <path
         id="path2358"
         style="fill:#000000;fill-opacity:1;fill-rule:evenodd;stroke:#000000;stroke-width:0.625;stroke-linejoin:round;stroke-opacity:1"
         d="M 8.7185878,4.0337352 -2.2072895,0.01601326 8.7185884,-4.0017078 c -1.7454984,2.3720609 -1.7354408,5.6174519 -6e-7,8.035443 z"
         transform="matrix(0.3,0,0,0.3,-0.69,0)"
         inkscape:connector-curvature="0" />
    </marker>
    <marker
       inkscape:stockid="Arrow2Lstart"
       orient="auto"
       refY="0"
       refX="0"
       id="Arrow2Lstart"
       style="overflow:visible"
       inkscape:isstock="true">
      <path
         id="path2346"
         style="fill:#000000;fill-opacity:1;fill-rule:evenodd;stroke:#000000;stroke-width:0.625;stroke-linejoin:round;stroke-opacity:1"
         d="M 8.7185878,4.0337352 -2.2072895,0.01601326 8.7185884,-4.0017078 c -1.7454984,2.3720609 -1.7354408,5.6174519 -6e-7,8.035443 z"
         transform="matrix(1.1,0,0,1.1,1.1,0)"
         inkscape:connector-curvature="0" />
    </marker>
    <marker
       inkscape:stockid="TriangleOutS"
       orient="auto"
       refY="0"
       refX="0"
       id="TriangleOutS"
       style="overflow:visible"
       inkscape:isstock="true">
      <path
         id="path2476"
         d="M 5.77,0 -2.88,5 V -5 Z"
         style="fill:#000000;fill-opacity:1;fill-rule:evenodd;stroke:#000000;stroke-width:1.00000003pt;stroke-opacity:1"
         transform="scale(0.2)"
         inkscape:connector-curvature="0" />
    </marker>
    <marker
       inkscape:stockid="Arrow1Lstart"
       orient="auto"
       refY="0"
       refX="0"
       id="Arrow1Lstart"
       style="overflow:visible"
       inkscape:isstock="true">
      <path
         id="path2328"
         d="M 0,0 5,-5 -12.5,0 5,5 Z"
         style="fill:#000000;fill-opacity:1;fill-rule:evenodd;stroke:#000000;stroke-width:1.00000003pt;stroke-opacity:1"
         transform="matrix(0.8,0,0,0.8,10,0)"
         inkscape:connector-curvature="0" />
    </marker>
    <inkscape:path-effect
       effect="simplify"
       id="path-effect2326"
       is_visible="true"
       steps="1"
       threshold="0.000408163"
       smooth_angles="360"
       helper_size="0"
       simplify_individual_paths="false"
       simplify_just_coalesce="false"
       simplifyindividualpaths="false"
       simplifyJustCoalesce="false" />
    <inkscape:path-effect
       effect="simplify"
       id="path-effect2322"
       is_visible="true"
       steps="1"
       threshold="0.000408163"
       smooth_angles="360"
       helper_size="0"
       simplify_individual_paths="false"
       simplify_just_coalesce="false"
       simplifyindividualpaths="false"
       simplifyJustCoalesce="false" />
    <inkscape:path-effect
       effect="simplify"
       id="path-effect2318"
       is_visible="true"
       steps="1"
       threshold="0.000408163"
       smooth_angles="360"
       helper_size="0"
       simplify_individual_paths="false"
       simplify_just_coalesce="false"
       simplifyindividualpaths="false"
       simplifyJustCoalesce="false" />
    <inkscape:path-effect
       effect="simplify"
       id="path-effect2314"
       is_visible="true"
       steps="1"
       threshold="0.000408163"
       smooth_angles="360"
       helper_size="0"
       simplify_individual_paths="false"
       simplify_just_coalesce="false"
       simplifyindividualpaths="false"
       simplifyJustCoalesce="false" />
    <clipPath
       id="clip0">
      <rect
         id="rect1669"
         height="46"
         width="137"
         y="2"
         x="173" />
    </clipPath>
    <clipPath
       id="clip0-9">
      <rect
         id="rect1715"
         height="82"
         width="72"
         y="-1"
         x="-2" />
    </clipPath>
    <clipPath
       id="clip0-1">
      <rect
         id="rect1777"
         height="174"
         width="599"
         y="123"
         x="73" />
    </clipPath>
    <clipPath
       id="clip0-6">
      <rect
         id="rect1937"
         height="101"
         width="313"
         y="-37"
         x="547" />
    </clipPath>
    <clipPath
       id="clip0-5">
      <rect
         id="rect1983"
         height="198"
         width="521"
         y="255"
         x="-3" />
    </clipPath>
    <clipPath
       id="clip0-7">
      <rect
         id="rect2137"
         height="212"
         width="726"
         y="258"
         x="658" />
    </clipPath>
    <clipPath
       id="clip0-76">
      <rect
         id="rect2855"
         height="61"
         width="420"
         y="251"
         x="217" />
    </clipPath>
    <clipPath
       id="clip0-0">
      <rect
         id="rect2922"
         height="88"
         width="109"
         y="597"
         x="1528" />
    </clipPath>
    <clipPath
       id="clip0-3">
      <rect
         id="rect2959"
         height="137"
         width="668"
         y="438"
         x="693" />
    </clipPath>
    <marker
       inkscape:stockid="Arrow2Sstart"
       orient="auto"
       refY="0"
       refX="0"
       id="Arrow2Sstart-4"
       style="overflow:visible"
       inkscape:isstock="true">
      <path
         id="path2358-8"
         style="fill:#000000;fill-opacity:1;fill-rule:evenodd;stroke:#000000;stroke-width:0.625;stroke-linejoin:round;stroke-opacity:1"
         d="M 8.7185878,4.0337352 -2.2072895,0.01601326 8.7185884,-4.0017078 c -1.7454984,2.3720609 -1.7354408,5.6174519 -6e-7,8.035443 z"
         transform="matrix(0.3,0,0,0.3,-0.69,0)"
         inkscape:connector-curvature="0" />
    </marker>
    <inkscape:path-effect
       effect="simplify"
       id="path-effect2318-1"
       is_visible="true"
       steps="1"
       threshold="0.000408163"
       smooth_angles="360"
       helper_size="0"
       simplify_individual_paths="false"
       simplify_just_coalesce="false"
       simplifyindividualpaths="false"
       simplifyJustCoalesce="false" />
    <marker
       inkscape:stockid="Arrow2Sstart"
       orient="auto"
       refY="0"
       refX="0"
       id="Arrow2Sstart-6"
       style="overflow:visible"
       inkscape:isstock="true">
      <path
         id="path2358-4"
         style="fill:#000000;fill-opacity:1;fill-rule:evenodd;stroke:#000000;stroke-width:0.625;stroke-linejoin:round;stroke-opacity:1"
         d="M 8.7185878,4.0337352 -2.2072895,0.01601326 8.7185884,-4.0017078 c -1.7454984,2.3720609 -1.7354408,5.6174519 -6e-7,8.035443 z"
         transform="matrix(0.3,0,0,0.3,-0.69,0)"
         inkscape:connector-curvature="0" />
    </marker>
    <inkscape:path-effect
       effect="simplify"
       id="path-effect2318-4"
       is_visible="true"
       steps="1"
       threshold="0.000408163"
       smooth_angles="360"
       helper_size="0"
       simplify_individual_paths="false"
       simplify_just_coalesce="false"
       simplifyindividualpaths="false"
       simplifyJustCoalesce="false" />
    <inkscape:path-effect
       effect="simplify"
       id="path-effect2326-8"
       is_visible="true"
       steps="1"
       threshold="0.000408163"
       smooth_angles="360"
       helper_size="0"
       simplify_individual_paths="false"
       simplify_just_coalesce="false"
       simplifyindividualpaths="false"
       simplifyJustCoalesce="false" />
    <marker
       inkscape:stockid="Arrow2Sstart"
       orient="auto"
       refY="0"
       refX="0"
       id="Arrow2Sstart-9"
       style="overflow:visible"
       inkscape:isstock="true">
      <path
         id="path2358-42"
         style="fill:#000000;fill-opacity:1;fill-rule:evenodd;stroke:#000000;stroke-width:0.625;stroke-linejoin:round;stroke-opacity:1"
         d="M 8.7185878,4.0337352 -2.2072895,0.01601326 8.7185884,-4.0017078 c -1.7454984,2.3720609 -1.7354408,5.6174519 -6e-7,8.035443 z"
         transform="matrix(0.3,0,0,0.3,-0.69,0)"
         inkscape:connector-curvature="0" />
    </marker>
    <inkscape:path-effect
       effect="simplify"
       id="path-effect2318-0"
       is_visible="true"
       steps="1"
       threshold="0.000408163"
       smooth_angles="360"
       helper_size="0"
       simplify_individual_paths="false"
       simplify_just_coalesce="false"
       simplifyindividualpaths="false"
       simplifyJustCoalesce="false" />
  </defs>
  <sodipodi:namedview
     id="base"
     pagecolor="#ffffff"
     bordercolor="#666666"
     borderopacity="1.0"
     inkscape:pageopacity="0.0"
     inkscape:pageshadow="2"
     inkscape:zoom="1"
     inkscape:cx="874.55908"
     inkscape:cy="461.6969"
     inkscape:document-units="mm"
     inkscape:current-layer="layer1"
     showgrid="true"
     showguides="false"
     inkscape:window-width="2560"
     inkscape:window-height="1361"
     inkscape:window-x="-9"
     inkscape:window-y="-9"
     inkscape:window-maximized="1">
    <inkscape:grid
       type="xygrid"
       id="grid2300"
       originx="0.49221363"
       originy="-66.645116" />
  </sodipodi:namedview>
  <metadata
     id="metadata1121">
    <rdf:RDF>
      <cc:Work
         rdf:about="">
        <dc:format>image/svg+xml</dc:format>
        <dc:type
           rdf:resource="http://purl.org/dc/dcmitype/StillImage" />
      </cc:Work>
    </rdf:RDF>
  </metadata>
  <g
     inkscape:label="Layer 1"
     inkscape:groupmode="layer"
     id="layer1"
     transform="translate(0.49221365,6.2124897)">
    <g
       id="g1694"
       transform="matrix(0.53407992,0,0,0.3905352,-62.315216,-4.6930663)"
       clip-path="url(#clip0)"
       style="stroke-width:0.57933438">
      <path
         id="path1674"
         d="m 174,2 v 1.10294 h 0.752 c 2.445,0 2.508,0.36765 2.508,1.69118 V 24.1324 c 0,1.3235 -0.063,1.7647 -2.508,1.7647 H 174 V 27 h 11.472 C 190.737,27 195,21.5588 195,14.7206 195,7.73529 190.8,2 185.472,2 Z m 7.46,23.8971 c -1.505,0 -1.567,-0.2942 -1.567,-1.4706 V 4.57353 c 0,-1.25 0.062,-1.47059 1.567,-1.47059 h 3.134 c 1.943,0 4.075,0.80882 5.705,3.38235 1.316,2.20589 1.629,5.36761 1.629,8.23531 0,4.0441 -0.627,6.25 -1.755,8.0147 -0.627,1.0294 -2.382,3.1618 -5.579,3.1618 h -3.134"
         inkscape:connector-curvature="0"
         style="fill-rule:evenodd;stroke-width:0.57933438" />
      <path
         id="path1676"
         d="m 210.111,15.4717 c 0.799,-2.3145 2.397,-2.3145 2.889,-2.3145 V 12 c -0.738,0.0723 -1.598,0.1447 -2.336,0.1447 -0.553,0 -1.967,-0.0724 -2.644,-0.1447 v 1.1572 c 0.984,0 1.476,0.651 1.476,1.5189 0,0.3616 -0.062,0.434 -0.185,0.8679 l -3.135,8.8963 -3.381,-9.6919 c -0.123,-0.3616 -0.184,-0.5063 -0.184,-0.6509 0,-0.9403 1.106,-0.9403 1.721,-0.9403 V 12 c -0.799,0.0723 -2.828,0.1447 -3.381,0.1447 -0.799,0 -2.029,-0.0724 -2.951,-0.1447 v 1.1572 c 1.475,0 2.029,0 2.459,1.2296 l 4.611,13.1635 c -0.123,0.5063 -0.554,1.6635 -0.738,2.1698 -0.676,1.9529 -1.537,4.4843 -3.504,4.4843 -0.185,0 -0.861,0 -1.476,-0.6509 0.984,-0.1447 1.23,-0.9403 1.23,-1.5189 0,-0.9403 -0.615,-1.5189 -1.291,-1.5189 -0.615,0 -1.291,0.434 -1.291,1.5189 0,1.6635 1.291,2.9654 2.828,2.9654 1.906,0 3.197,-2.0975 3.934,-4.1226 l 5.349,-15.4057"
         inkscape:connector-curvature="0"
         style="fill-rule:evenodd;stroke-width:0.57933438" />
      <path
         id="path1678"
         d="m 217.432,14.5636 v 9.6728 c 0,1.6727 -0.32,1.6727 -2.432,1.6727 V 27 c 1.088,0 2.688,-0.0727 3.584,-0.0727 0.832,0 2.496,0.0727 3.584,0.0727 v -1.0909 c -2.176,0 -2.496,0 -2.496,-1.6727 v -6.6182 c 0,-3.7818 2.24,-5.8182 4.288,-5.8182 2.048,0 2.368,1.9636 2.368,4 v 8.4364 c 0,1.6727 -0.32,1.6727 -2.496,1.6727 V 27 c 1.152,0 2.752,-0.0727 3.648,-0.0727 0.832,0 2.432,0.0727 3.52,0.0727 v -1.0909 c -1.664,0 -2.432,0 -2.432,-1.0909 v -6.9091 c 0,-3.1273 0,-4.2909 -1.024,-5.6 C 227.096,11.7273 226.072,11 224.216,11 c -2.368,0 -3.84,1.5273 -4.736,3.7818 V 11 L 215,11.3636 v 1.1637 c 2.176,0 2.432,0.2182 2.432,2.0363"
         inkscape:connector-curvature="0"
         style="fill-rule:evenodd;stroke-width:0.57933438" />
      <path
         id="path1680"
         d="m 242.084,24.7336 c 0.125,1.4847 0.934,3.0437 2.427,3.0437 0.622,0 2.489,-0.5197 2.489,-3.4891 v -2.0786 h -0.747 v 2.0786 c 0,2.1528 -0.809,2.3756 -1.12,2.3756 -0.995,0 -1.12,-1.7075 -1.12,-1.8559 v -7.4236 c 0,-1.559 0,-2.9695 -1.12,-4.3799 C 241.649,11.5939 240.093,11 238.6,11 c -2.551,0 -4.667,1.7074 -4.667,4.1572 0,1.1135 0.623,1.7817 1.431,1.7817 0.872,0 1.432,-0.7424 1.432,-1.7075 0,-0.4454 -0.187,-1.7074 -1.618,-1.7074 0.871,-1.3362 2.364,-1.7074 3.36,-1.7074 1.555,0 3.298,1.4105 3.298,4.7511 v 1.3362 c -1.556,0.1485 -3.734,0.2227 -5.725,1.3363 -2.302,1.262 -3.111,3.1921 -3.111,4.8253 0,2.9694 3.049,3.9345 4.978,3.9345 2.053,0 3.484,-1.4847 4.106,-3.2664 z m -0.248,-6.0131 v 3.6376 c 0,3.5633 -2.24,4.8253 -3.609,4.8253 -1.556,0 -2.8,-1.3362 -2.8,-3.1921 0,-2.0044 1.306,-5.0481 6.409,-5.2708"
         inkscape:connector-curvature="0"
         style="fill-rule:evenodd;stroke-width:0.57933438" />
      <path
         id="path1682"
         d="m 251.406,14.5636 v 9.6728 c 0,1.6727 -0.37,1.6727 -2.406,1.6727 V 27 c 1.049,0 2.653,-0.0727 3.455,-0.0727 0.802,0 2.406,0.0727 3.455,0.0727 v -1.0909 c -2.098,0 -2.406,0 -2.406,-1.6727 v -6.6182 c 0,-3.7818 2.159,-5.8182 4.134,-5.8182 1.974,0 2.282,1.9636 2.282,4 v 8.4364 c 0,1.6727 -0.308,1.6727 -2.406,1.6727 V 27 c 1.111,0 2.653,-0.0727 3.517,-0.0727 0.802,0 2.406,0.0727 3.455,0.0727 v -1.0909 c -2.098,0 -2.406,0 -2.406,-1.6727 v -6.6182 c 0,-3.7818 2.159,-5.8182 4.133,-5.8182 1.913,0 2.283,1.9636 2.283,4 v 8.4364 c 0,1.6727 -0.37,1.6727 -2.406,1.6727 V 27 c 1.049,0 2.653,-0.0727 3.455,-0.0727 0.802,0 2.406,0.0727 3.455,0.0727 v -1.0909 c -1.604,0 -2.344,0 -2.406,-1.0909 v -6.9091 c 0,-3.1273 0,-4.2909 -0.926,-5.6 C 269.237,11.7273 268.188,11 266.398,11 c -2.529,0 -3.886,2.1818 -4.442,3.5636 -0.432,-3.2 -2.714,-3.5636 -4.072,-3.5636 -2.282,0 -3.701,1.5273 -4.565,3.7818 V 11 L 249,11.3636 v 1.1637 c 2.159,0 2.406,0.2182 2.406,2.0363"
         inkscape:connector-curvature="0"
         style="fill-rule:evenodd;stroke-width:0.57933438" />
      <path
         id="path1684"
         d="m 279.71,11.1441 -4.579,0.3604 v 1.1532 c 2.159,0 2.42,0.2162 2.42,1.9459 v 9.6577 c 0,1.6576 -0.327,1.6576 -2.551,1.6576 V 27 c 1.047,0 2.813,-0.0721 3.598,-0.0721 1.178,0 2.29,0.0721 3.402,0.0721 v -1.0811 c -2.159,0 -2.29,-0.2162 -2.29,-1.5856 z m 0.131,-6.27023 C 279.841,3.72072 279.056,3 278.14,3 c -1.047,0 -1.766,0.93694 -1.766,1.87387 0,0.93694 0.719,1.87388 1.766,1.87388 0.916,0 1.701,-0.72072 1.701,-1.87388"
         inkscape:connector-curvature="0"
         style="fill-rule:evenodd;stroke-width:0.57933438" />
      <path
         id="path1686"
         d="m 286.653,19.5371 c 0,-6.0873 2.589,-7.6463 4.231,-7.6463 0.316,0 2.274,0.0743 3.348,1.4105 -1.264,0.0742 -1.453,1.1878 -1.453,1.7074 0,0.9651 0.568,1.7075 1.453,1.7075 0.821,0 1.452,-0.6682 1.452,-1.7817 0,-2.524 -2.4,-3.9345 -4.8,-3.9345 -3.979,0 -6.884,4.0087 -6.884,8.6114 0,4.6768 3.158,8.3886 6.821,8.3886 4.168,0 5.179,-4.4541 5.179,-4.8253 0,-0.3712 -0.316,-0.3712 -0.379,-0.3712 -0.316,0 -0.379,0.1485 -0.442,0.3712 -0.884,3.4148 -2.905,3.8602 -4.105,3.8602 -1.642,0 -4.421,-1.5589 -4.421,-7.4978"
         inkscape:connector-curvature="0"
         style="fill-rule:evenodd;stroke-width:0.57933438" />
      <path
         id="path1688"
         d="m 303.939,20.4279 c 0.742,0.1485 3.509,0.7424 3.509,3.3407 0,1.9301 -1.215,3.4148 -3.847,3.4148 -2.834,0 -4.049,-2.1528 -4.656,-5.2707 -0.135,-0.4455 -0.135,-0.6682 -0.473,-0.6682 -0.472,0 -0.472,0.297 -0.472,0.9651 v 4.8996 c 0,0.5939 0,0.8908 0.405,0.8908 0.135,0 0.202,-0.0742 0.81,-0.7424 0.067,-0.0742 0.067,-0.1484 0.675,-0.8908 1.484,1.559 3.036,1.6332 3.711,1.6332 3.914,0 5.399,-2.524 5.399,-5.1965 0,-1.9301 -1.012,-3.0437 -1.417,-3.4891 -1.08,-1.1878 -2.362,-1.4847 -3.779,-1.7816 -1.89,-0.3712 -4.184,-0.8909 -4.184,-3.0437 0,-1.262 0.877,-2.821 3.779,-2.821 3.711,0 3.846,3.3406 3.981,4.5284 0,0.297 0.27,0.297 0.405,0.297 0.405,0 0.405,-0.1485 0.405,-0.8909 v -3.7118 c 0,-0.6681 0,-0.8908 -0.405,-0.8908 -0.135,0 -0.202,0 -0.607,0.4454 -0.135,0.1485 -0.472,0.4454 -0.607,0.5939 C 305.288,11 303.939,11 303.399,11 299.282,11 298,13.4498 298,15.5284 c 0,1.3362 0.54,2.3755 1.485,3.1921 1.079,0.9651 2.024,1.1878 4.454,1.7074"
         inkscape:connector-curvature="0"
         style="fill-rule:evenodd;stroke-width:0.57933438" />
      <rect
         id="rect1690"
         height="2"
         width="137"
         y="39"
         x="173"
         style="stroke-width:0.57933438" />
      <rect
         id="rect1692"
         height="1"
         width="137"
         y="47"
         x="173"
         style="stroke-width:0.57933438" />
    </g>
    <g
       id="g1730"
       transform="matrix(0.26458333,0,0,0.26458333,0.7937502,-5.9479064)"
       clip-path="url(#clip0-9)">
      <rect
         id="rect1720"
         height="2"
         width="72"
         y="-1"
         x="-2" />
      <rect
         id="rect1722"
         height="78"
         width="3"
         y="1"
         x="-2" />
      <path
         id="path1724"
         d="M 38.5652,21.8246 H 46 V 19 c -2.6087,0.1228 -9,0.1228 -12,0.1228 -3,0 -9.3913,0 -12,-0.1228 v 2.8246 h 7.4348 v 36.228 H 22 V 61 c 2.6087,-0.2456 9,-0.2456 12,-0.2456 3,0 9.3913,0 12,0.2456 v -2.9474 h -7.4348 v -36.228"
         inkscape:connector-curvature="0"
         style="fill-rule:evenodd" />
      <rect
         id="rect1726"
         height="78"
         width="3"
         y="1"
         x="67" />
      <rect
         id="rect1728"
         height="2"
         width="72"
         y="79"
         x="-2" />
    </g>
    <g
       id="g1878"
       transform="matrix(0.26458333,0,0,0.26458333,7.0141734,-14.873976)"
       clip-path="url(#clip0-1)">
      <path
         id="path1782"
         d="m 84,234 h 11 v -2.438 H 86.3511 V 128.438 H 95 V 126 H 84 v 108"
         inkscape:connector-curvature="0"
         style="fill-rule:evenodd" />
      <path
         id="path1784"
         d="M 146.465,134.175 H 151 V 132 c -1.54,0.181 -5.733,0.181 -7.616,0.181 -1.797,0 -5.99,0 -7.616,-0.181 v 2.175 h 4.621 v 11.693 h -13.692 v -11.693 h 4.621 V 132 c -1.626,0.181 -5.819,0.181 -7.702,0.181 -1.797,0 -5.99,0 -7.616,-0.181 v 2.175 h 4.621 v 26.74 H 116 V 163 c 1.626,-0.091 5.819,-0.091 7.616,-0.091 1.883,0 6.076,0 7.702,0.091 v -2.085 h -4.621 v -12.962 h 13.692 v 12.962 h -4.621 V 163 c 1.626,-0.091 5.819,-0.091 7.616,-0.091 1.883,0 6.076,0 7.616,0.091 v -2.085 h -4.535 v -26.74"
         inkscape:connector-curvature="0"
         style="fill-rule:evenodd" />
      <path
         id="path1786"
         d="m 241.546,153 c 0.684,0 1.454,0 1.454,-1 0,-1 -0.77,-1 -1.454,-1 h -23.092 c -0.684,0 -1.454,0 -1.454,1 0,1 0.77,1 1.454,1 h 23.092"
         inkscape:connector-curvature="0"
         style="fill-rule:evenodd" />
      <path
         id="path1788"
         d="M 265.583,134.207 H 269 V 132 c -1.5,0.184 -5,0.184 -6.667,0.184 -2.166,0 -6.25,0 -8.25,-0.184 v 2.207 h 5.834 v 22.437 c 0,0.919 0,5.701 -4.084,5.701 -0.75,0 -2.083,-0.184 -3.333,-0.736 v -0.092 c 0,0 1.833,-0.827 1.833,-3.218 0,-2.483 -1.75,-3.586 -3.083,-3.586 -1.583,0 -3.25,1.195 -3.25,3.586 0,3.494 3.333,5.701 8,5.701 5.583,0 9.583,-2.667 9.583,-7.356 v -22.437"
         inkscape:connector-curvature="0"
         style="fill-rule:evenodd" />
      <path
         id="path1790"
         d="m 286.213,126.545 h 9.539 c 0.446,0 1.248,0 1.248,-0.818 C 297,125 296.198,125 295.752,125 h -20.504 c -0.446,0 -1.248,0 -1.248,0.727 0,0.818 0.713,0.818 1.248,0.818 h 9.45 v 19.182 c 0,0.546 0,1.273 0.802,1.273 0.713,0 0.713,-0.818 0.713,-1.273 v -19.182"
         inkscape:connector-curvature="0"
         style="fill-rule:evenodd" />
      <path
         id="path1792"
         d="m 285.278,162.783 c -1.119,0.179 -1.55,1.071 -1.55,1.784 0,0.802 0.603,1.07 1.206,1.07 0.602,0 1.636,-0.446 1.636,-1.962 0,-2.14 -2.325,-2.675 -3.961,-2.675 -4.477,0 -8.609,4.28 -8.609,8.561 0,2.675 1.722,5.439 5.51,5.439 5.079,0 7.49,-3.032 7.49,-3.478 0,-0.178 -0.344,-0.535 -0.517,-0.535 -0.172,0 -0.258,0 -0.516,0.268 -2.325,2.853 -5.854,2.853 -6.371,2.853 -2.152,0 -3.099,-1.516 -3.099,-3.388 0,-0.892 0.344,-4.37 1.98,-6.51 1.119,-1.516 2.669,-2.318 4.132,-2.318 0.431,0 1.894,0 2.669,0.891"
         inkscape:connector-curvature="0"
         style="fill-rule:evenodd" />
      <path
         id="path1794"
         d="m 123.525,207 c 0.737,0 1.475,0 1.475,-1 0,-1 -0.738,-1 -1.475,-1 h -22.132 c -0.655,0 -1.393,0 -1.393,1 0,1 0.738,1 1.393,1 h 22.132"
         inkscape:connector-curvature="0"
         style="fill-rule:evenodd" />
      <path
         id="path1796"
         d="M 147.583,189.138 H 151 V 187 c -1.5,0.178 -5,0.178 -6.667,0.178 -2.166,0 -6.25,0 -8.25,-0.178 v 2.138 H 142 v 21.736 c 0,0.89 0,5.523 -4.167,5.523 -0.666,0 -2.083,-0.179 -3.333,-0.713 v -0.089 c 0,0 1.917,-0.802 1.917,-3.118 0,-2.405 -1.834,-3.474 -3.167,-3.474 -1.583,0 -3.25,1.158 -3.25,3.474 0,3.385 3.333,5.523 8.083,5.523 5.584,0 9.5,-2.583 9.5,-7.126 v -21.736"
         inkscape:connector-curvature="0"
         style="fill-rule:evenodd" />
      <path
         id="path1798"
         d="m 167.278,211.994 c -1.119,0.19 -1.55,1.139 -1.55,1.803 0,0.95 0.603,1.235 1.206,1.235 0.602,0 1.636,-0.57 1.636,-2.089 0,-2.278 -2.325,-2.943 -3.961,-2.943 -4.477,0 -8.609,4.652 -8.609,9.209 0,2.848 1.808,5.791 5.51,5.791 5.079,0 7.49,-3.323 7.49,-3.797 0,-0.19 -0.258,-0.57 -0.517,-0.57 -0.172,0 -0.258,0.095 -0.516,0.38 -2.325,3.038 -5.854,3.038 -6.371,3.038 -2.152,0 -3.099,-1.614 -3.099,-3.703 0,-0.949 0.344,-4.557 1.98,-6.835 1.119,-1.614 2.669,-2.564 4.132,-2.564 0.431,0 1.894,0.095 2.669,1.045"
         inkscape:connector-curvature="0"
         style="fill-rule:evenodd" />
      <path
         id="path1800"
         d="m 266,202.636 c 0,-3.616 -0.162,-7.231 -1.619,-10.575 C 262.519,187.723 259.2,187 257.5,187 c -2.429,0 -5.343,1.175 -6.962,5.423 -1.295,3.073 -1.538,6.597 -1.538,10.213 0,3.344 0.162,7.411 1.862,10.845 1.7,3.615 4.614,4.519 6.638,4.519 2.186,0 5.262,-0.904 7.043,-5.242 1.295,-3.073 1.457,-6.598 1.457,-10.122 z m -8.5,14.37 c -1.619,0 -3.967,-1.085 -4.695,-5.423 -0.405,-2.711 -0.405,-6.869 -0.405,-9.49 0,-2.892 0,-5.874 0.324,-8.315 0.728,-5.332 3.724,-5.784 4.776,-5.784 1.295,0 3.967,0.814 4.776,5.333 0.405,2.44 0.405,5.874 0.405,8.766 0,3.344 0,6.417 -0.486,9.309 -0.566,4.248 -2.914,5.604 -4.695,5.604"
         inkscape:connector-curvature="0"
         style="fill-rule:evenodd" />
      <path
         id="path1802"
         d="M 310.733,231.562 H 302 V 234 h 11 V 126 h -11 v 2.438 h 8.733 v 103.124"
         inkscape:connector-curvature="0"
         style="fill-rule:evenodd" />
      <path
         id="path1804"
         d="m 93,248.868 c 0,-0.988 0,-1.257 -0.5809,-1.257 -2.4896,0 -6.639,-0.36 -10.3735,-2.336 -4.4813,-2.425 -6.141,-5.299 -7.2199,-7.006 C 74.7427,238 74.4938,238 73.9958,238 73,238 73,238.09 73,239.168 v 0.718 C 78.5602,250.934 87.9378,253 92.0871,253 93,253 93,252.91 93,251.743 v -2.875"
         inkscape:connector-curvature="0"
         style="fill-rule:evenodd" />
      <rect
         id="rect1806"
         height="5"
         width="86"
         y="248"
         x="93" />
      <path
         id="path1808"
         d="M 200,261.114 C 194.075,250.156 184.315,248 179.871,248 179,248 179,248.09 179,249.257 v 2.875 c 0,0.988 0,1.257 0.61,1.257 2.614,0 6.884,0.36 10.805,2.336 4.705,2.425 6.535,5.299 7.581,7.006 C 198.17,263 198.432,263 198.954,263 200,263 200,262.91 200,261.832 v -0.718"
         inkscape:connector-curvature="0"
         style="fill-rule:evenodd" />
      <path
         id="path1810"
         d="m 218,249.257 c 0,-1.167 0,-1.257 -0.83,-1.257 -4.232,0 -13.527,2.156 -19.17,13.114 v 0.718 c 0,1.078 0,1.168 0.996,1.168 0.747,0 0.83,-0.09 0.996,-0.359 3.402,-5.928 9.128,-9.072 17.51,-9.252 0.498,0 0.498,-0.359 0.498,-1.257 v -2.875"
         inkscape:connector-curvature="0"
         style="fill-rule:evenodd" />
      <rect
         id="rect1812"
         height="5"
         width="87"
         y="248"
         x="217" />
      <path
         id="path1814"
         d="m 324,239.168 c 0,-1.078 0,-1.168 -0.996,-1.168 -0.747,0 -0.83,0.09 -0.996,0.359 -3.402,5.928 -9.128,9.072 -17.51,9.252 -0.498,0 -0.498,0.359 -0.498,1.257 v 2.875 c 0,1.167 0,1.257 0.83,1.257 4.232,0 13.61,-2.156 19.17,-13.114 v -0.718"
         inkscape:connector-curvature="0"
         style="fill-rule:evenodd" />
      <path
         id="path1816"
         d="m 199.767,282.259 8.301,-6.15 c 0.349,-0.264 0.524,-0.44 2.621,-0.44 h 0.787 V 274 c 0,0 -1.923,0.088 -3.233,0.088 -1.748,0 -4.719,-0.088 -4.893,-0.088 v 1.669 c 0.524,0 0.961,0 1.747,0.176 l -12.233,9.226 v -9.402 h 3.233 V 274 c -0.699,0 -5.068,0.088 -5.592,0.088 -0.612,0 -4.893,-0.088 -5.505,-0.088 v 1.669 h 3.233 v 17.574 H 185 V 295 c 0.699,-0.088 5.068,-0.176 5.505,-0.176 0.699,0 4.893,0.088 5.592,0.176 v -1.757 h -3.233 v -5.799 l 3.757,-2.812 7.253,8.435 c -0.612,0.176 -0.699,0.176 -1.923,0.176 V 295 c 1.573,-0.176 3.932,-0.176 5.593,-0.176 1.31,0 4.369,0.176 4.456,0.176 v -1.757 h -1.223 c -1.398,0 -1.486,-0.088 -1.835,-0.44 l -9.175,-10.544"
         inkscape:connector-curvature="0"
         style="fill-rule:evenodd" />
      <path
         id="path1818"
         d="m 343,234 h 11 v -2.438 h -8.649 V 128.438 H 354 V 126 h -11 v 108"
         inkscape:connector-curvature="0"
         style="fill-rule:evenodd" />
      <path
         id="path1820"
         d="m 366.452,134.5 c 0,-1.2 -0.89,-2.5 -2.226,-2.5 -1.247,0 -2.226,1.1 -2.226,2.5 0,1.4 0.979,2.5 2.226,2.5 1.336,0 2.226,-1.3 2.226,-2.5 z m 8.548,0 c 0,-1.4 -0.89,-2.5 -2.137,-2.5 -1.336,0 -2.226,1.3 -2.226,2.5 0,1.2 0.89,2.5 2.226,2.5 1.247,0 2.137,-1.1 2.137,-2.5"
         inkscape:connector-curvature="0"
         style="fill-rule:evenodd" />
      <path
         id="path1822"
         d="m 373.797,156.822 c 0,0.814 0,0.994 -0.655,1.898 -1.637,2.71 -3.683,3.162 -4.911,3.162 -2.537,0 -4.993,-2.62 -4.993,-8.583 0,-6.414 3.029,-8.492 5.484,-8.492 3.111,0 5.075,3.523 5.075,5.782 z m 0.573,-10.299 C 372.897,144.355 370.605,143 368.231,143 362.256,143 358,146.975 358,153.209 c 0,6.414 4.174,10.299 9.822,10.299 1.964,0 3.847,-0.633 5.73,-2.439 v 8.853 h -2.865 V 172 c 1.146,-0.09 3.601,-0.181 5.156,-0.181 1.637,0 4.011,0.091 5.157,0.181 v -2.078 h -2.783 V 143 h -1.719 l -2.128,3.523"
         inkscape:connector-curvature="0"
         style="fill-rule:evenodd" />
      <path
         id="path1824"
         d="M 370.003,188.545 C 369.5,187.273 368.997,186 363.879,186 c -1.007,0 -1.678,0 -1.678,0.818 0,0.727 0.588,0.818 0.588,0.818 0.671,0.091 1.174,0.091 1.845,1.182 0.504,0.909 4.782,11.727 5.789,14 l -12.081,10.637 c -0.503,0.363 -1.342,1.181 -1.342,2.363 0,1.273 0.923,2.182 2.013,2.182 1.175,0 2.014,-1 3.188,-2.364 0.084,-0.091 2.098,-2.454 2.265,-2.636 1.594,-1.727 5.286,-6.182 6.88,-7.818 l 4.026,9.818 c 0.084,0.364 0.504,1.182 0.588,1.545 0.419,0.819 1.174,1.273 2.684,1.273 h 2.098 c 0.755,0 1.258,0 1.258,-0.636 0,-0.182 -0.168,-0.364 -0.252,-0.546 -0.335,-0.363 -0.671,-1.181 -1.006,-1.909 l -10.739,-26.182"
         inkscape:connector-curvature="0"
         style="fill-rule:evenodd" />
      <path
         id="path1826"
         d="M 392.649,231.562 H 384 V 234 h 11 V 126 h -11 v 2.438 h 8.649 v 103.124"
         inkscape:connector-curvature="0"
         style="fill-rule:evenodd" />
      <path
         id="path1828"
         d="m 350,248.868 c 0,-1.078 0,-1.257 -0.579,-1.257 -2.562,-0.09 -6.611,-0.449 -10.33,-2.336 -4.463,-2.425 -6.116,-5.299 -7.19,-7.006 C 331.818,238 331.57,238 330.992,238 330.083,238 330,238.09 330,239.168 v 0.718 C 335.62,250.844 344.876,253 349.091,253 350,253 350,252.91 350,251.743 v -2.875"
         inkscape:connector-curvature="0"
         style="fill-rule:evenodd" />
      <path
         id="path1830"
         d="M 370,260.114 C 364.099,249.066 354.38,247 349.955,247 349,247 349,247 349,248.257 v 2.875 c 0,0.988 0,1.257 0.607,1.257 2.691,0 6.943,0.36 10.848,2.336 4.686,2.425 6.421,5.299 7.549,7.006 0.087,0.269 0.347,0.269 0.955,0.269 0.954,0 1.041,-0.09 1.041,-1.168 v -0.718"
         inkscape:connector-curvature="0"
         style="fill-rule:evenodd" />
      <path
         id="path1832"
         d="M 388,248.257 C 388,247 388,247 387.087,247 382.938,247 373.56,249.156 368,260.114 v 0.718 c 0,1.078 0,1.168 0.996,1.168 0.747,0 0.747,-0.09 0.996,-0.359 3.402,-5.928 9.128,-9.072 17.51,-9.252 0.498,0 0.498,-0.359 0.498,-1.257 v -2.875"
         inkscape:connector-curvature="0"
         style="fill-rule:evenodd" />
      <path
         id="path1834"
         d="m 408,239.168 c 0,-1.078 0,-1.168 -0.996,-1.168 -0.747,0 -0.83,0.09 -0.996,0.359 -3.402,5.928 -9.128,9.072 -17.51,9.252 -0.498,0 -0.498,0.269 -0.498,1.257 v 2.875 c 0,1.167 0,1.257 0.83,1.257 4.232,0 13.527,-2.156 19.17,-13.114 v -0.718"
         inkscape:connector-curvature="0"
         style="fill-rule:evenodd" />
      <path
         id="path1836"
         d="m 366.623,280.159 c 0,-0.178 0,-0.356 0,-0.535 0,0 0,-0.624 -0.68,-0.624 -0.169,0 -0.169,0 -0.254,0 l -3.991,0.178 c -0.34,0 -1.019,0.09 -1.019,1.07 0,0.714 0.679,0.714 1.019,0.714 0.51,0 0.934,0 0.934,0.178 0,0 0,0.268 -0.085,0.357 l -2.462,10.344 c 0,0.178 -0.085,0.356 -0.085,0.535 0,0 0,0.624 0.849,0.624 h 0.849 c 1.953,-0.178 7.217,-1.338 11.547,-4.904 3.991,-3.211 4.755,-6.956 4.755,-7.58 0,-1.07 -0.849,-1.516 -1.528,-1.516 -0.595,0 -1.783,0.268 -2.208,1.783 -0.849,3.3 -2.887,6.332 -7.047,8.828 -1.189,0.714 -2.208,1.071 -2.717,1.249 l -0.509,0.178 2.632,-10.879"
         inkscape:connector-curvature="0"
         style="fill-rule:evenodd" />
      <path
         id="path1838"
         d="m 447.566,175.88 c 0.591,0 1.434,0 1.434,-0.94 0,-0.94 -0.843,-0.94 -1.434,-0.94 h -25.132 c -0.591,0 -1.434,0 -1.434,0.94 0,0.94 0.843,0.94 1.434,0.94 z m 0,9.12 c 0.591,0 1.434,0 1.434,-0.94 0,-0.94 -0.843,-0.94 -1.434,-0.94 h -25.132 c -0.591,0 -1.434,0 -1.434,0.94 0,0.94 0.843,0.94 1.434,0.94 h 25.132"
         inkscape:connector-curvature="0"
         style="fill-rule:evenodd" />
      <path
         id="path1840"
         d="m 474,234 h 11 v -2.438 h -8.733 V 128.438 H 485 V 126 h -11 v 108"
         inkscape:connector-curvature="0"
         style="fill-rule:evenodd" />
      <path
         id="path1842"
         d="m 502.972,142.782 -6.035,-1.36 c -1.654,-0.453 -3.968,-1.994 -3.968,-4.714 0,-1.994 1.157,-4.714 5.291,-4.714 3.307,0 7.441,1.451 8.433,7.615 0.165,1.088 0.165,1.179 0.992,1.179 0.992,0 0.992,-0.182 0.992,-1.27 v -8.249 c 0,-0.816 0,-1.269 -0.744,-1.269 -0.331,0 -0.331,0.091 -0.827,0.544 l -1.819,1.994 C 502.89,130.453 500.244,130 498.26,130 c -6.284,0 -9.26,4.351 -9.26,9.065 0,2.992 1.323,5.077 2.232,6.074 1.985,2.175 3.39,2.538 7.937,3.626 3.638,0.816 4.3,0.997 5.209,1.904 0.579,0.634 1.653,1.813 1.653,3.898 0,2.175 -1.074,5.348 -5.374,5.348 -3.141,0 -9.425,-0.907 -9.755,-7.705 0,-0.816 0,-0.998 -0.91,-0.998 -0.992,0 -0.992,0.272 -0.992,1.27 v 8.249 c 0,0.906 0,1.269 0.744,1.269 0.331,0 0.413,-0.091 0.744,-0.363 l 1.902,-2.085 c 2.728,2.176 6.614,2.448 8.267,2.448 6.78,0 9.343,-5.076 9.343,-9.7 0,-4.986 -3.307,-8.612 -7.028,-9.518"
         inkscape:connector-curvature="0"
         style="fill-rule:evenodd" />
      <path
         id="path1844"
         d="m 526.767,124.545 h 9.039 c 0.512,0 1.194,0 1.194,-0.727 C 537,123 536.318,123 535.806,123 h -19.612 c -0.427,0 -1.194,0 -1.194,0.727 0,0.818 0.682,0.818 1.194,0.818 h 9.124 v 19.182 c 0,0.546 0,1.273 0.682,1.273 0.767,0 0.767,-0.727 0.767,-1.273 v -19.182"
         inkscape:connector-curvature="0"
         style="fill-rule:evenodd" />
      <path
         id="path1846"
         d="m 556.343,146.211 h 7.72 c 0.839,0 1.427,0 2.098,-0.615 C 567,144.807 567,143.842 567,143.754 567,142 565.49,142 564.734,142 h -13.762 c -0.839,0 -2.685,0 -4.867,2.105 -1.427,1.404 -3.105,3.684 -3.105,4.123 0,0.614 0.503,0.614 1.007,0.614 0.587,0 0.671,-0.088 1.007,-0.526 1.594,-2.105 4.364,-2.105 5.119,-2.105 h 3.776 l -1.51,4.649 c -0.336,1.052 -1.259,3.859 -1.595,5 -0.503,1.403 -1.259,3.684 -1.259,4.21 0,1.228 0.924,1.93 1.931,1.93 0.335,0 2.433,0 2.853,-2.895 l 2.014,-12.894"
         inkscape:connector-curvature="0"
         style="fill-rule:evenodd" />
      <path
         id="path1848"
         d="m 607.546,151 c 0.684,0 1.454,0 1.454,-1 0,-1 -0.77,-1 -1.454,-1 h -23.092 c -0.684,0 -1.454,0 -1.454,1 0,1 0.77,1 1.454,1 h 23.092"
         inkscape:connector-curvature="0"
         style="fill-rule:evenodd" />
      <path
         id="path1850"
         d="M 625.993,159.78 H 623 V 162 c 1.232,-0.092 3.873,-0.185 5.458,-0.185 1.76,0 4.313,0.093 5.546,0.185 v -2.22 h -2.993 v -9.618 c 0,-4.994 3.785,-7.307 6.514,-7.307 1.496,0 2.464,1.018 2.464,4.532 v 12.393 h -3.081 V 162 c 1.233,-0.092 3.874,-0.185 5.546,-0.185 1.761,0 4.314,0.093 5.546,0.185 v -2.22 h -2.993 v -11.93 c 0,-4.81 -2.377,-6.659 -6.778,-6.659 -4.225,0 -6.514,2.682 -7.483,4.532 V 130 L 623,130.37 v 2.127 c 2.729,0 2.993,0 2.993,1.757 v 25.526"
         inkscape:connector-curvature="0"
         style="fill-rule:evenodd" />
      <path
         id="path1852"
         d="m 548,180.547 c 0,-1.321 -1.038,-2.547 -2.453,-2.547 -1.604,0 -2.547,1.321 -2.547,2.547 0,1.227 1.038,2.453 2.453,2.453 1.604,0 2.547,-1.321 2.547,-2.453"
         inkscape:connector-curvature="0"
         style="fill-rule:evenodd" />
      <path
         id="path1854"
         d="M 551.653,190.207 H 555 V 188 c -1.422,0.184 -4.936,0.184 -6.61,0.184 -2.175,0 -6.274,0 -8.282,-0.184 v 2.207 h 5.856 v 22.437 c 0,0.827 0,5.701 -4.099,5.701 -0.753,0 -2.092,-0.184 -3.347,-0.736 v -0.092 c 0,0 1.841,-0.827 1.841,-3.31 0,-2.483 -1.757,-3.494 -3.18,-3.494 -1.506,0 -3.179,1.103 -3.179,3.494 0,3.586 3.263,5.793 8.032,5.793 5.605,0 9.621,-2.667 9.621,-7.448 v -22.345"
         inkscape:connector-curvature="0"
         style="fill-rule:evenodd" />
      <path
         id="path1856"
         d="m 571.364,213.783 c -1.119,0.179 -1.549,1.071 -1.549,1.784 0,0.802 0.602,1.159 1.119,1.159 0.688,0 1.722,-0.535 1.722,-2.051 0,-2.051 -2.325,-2.675 -3.961,-2.675 -4.476,0 -8.695,4.28 -8.695,8.65 0,2.675 1.808,5.35 5.596,5.35 5.079,0 7.404,-3.032 7.404,-3.478 0,-0.178 -0.258,-0.535 -0.517,-0.535 -0.172,0 -0.172,0.089 -0.43,0.357 -2.325,2.853 -5.854,2.853 -6.371,2.853 -2.152,0 -3.185,-1.515 -3.185,-3.477 0,-0.892 0.43,-4.281 1.98,-6.421 1.205,-1.516 2.755,-2.407 4.218,-2.407 0.431,0 1.894,0.089 2.669,0.891"
         inkscape:connector-curvature="0"
         style="fill-rule:evenodd" />
      <path
         id="path1858"
         d="m 591,191.5 c 0,-1.25 -0.889,-2.5 -2,-2.5 -1.259,0 -2,1.346 -2,2.5 0,1.25 0.889,2.5 2,2.5 1.259,0 2,-1.346 2,-2.5"
         inkscape:connector-curvature="0"
         style="fill-rule:evenodd" />
      <path
         id="path1860"
         d="m 593.457,212.822 c 0,0.814 0,0.994 -0.6,1.898 -1.714,2.71 -3.943,3.162 -5.228,3.162 -2.658,0 -5.143,-2.62 -5.143,-8.583 0,-6.414 3.085,-8.492 5.657,-8.492 3.257,0 5.314,3.523 5.314,5.782 z m 0.6,-10.299 C 592.6,200.355 590.2,199 587.629,199 581.371,199 577,202.975 577,209.299 c 0,6.324 4.286,10.209 10.2,10.209 2.143,0 4.029,-0.633 6,-2.439 v 8.853 h -2.914 V 228 c 1.2,0 3.771,-0.09 5.4,-0.09 1.628,0 4.114,0.09 5.314,0.09 v -2.078 h -2.914 V 199 h -1.715 l -2.314,3.523"
         inkscape:connector-curvature="0"
         style="fill-rule:evenodd" />
      <path
         id="path1862"
         d="M 658.455,231.562 H 649 V 234 h 12 V 126 h -12 v 2.438 h 9.455 v 103.124"
         inkscape:connector-curvature="0"
         style="fill-rule:evenodd" />
      <path
         id="path1864"
         d="m 483,250.868 c 0,-1.078 0,-1.257 -0.607,-1.257 -2.691,-0.09 -6.943,-0.36 -10.848,-2.336 -4.686,-2.425 -6.421,-5.299 -7.549,-7.006 C 463.909,240 463.649,240 463.041,240 462.087,240 462,240.09 462,241.168 v 0.718 C 467.901,252.844 477.62,255 482.045,255 483,255 483,254.91 483,253.743 v -2.875"
         inkscape:connector-curvature="0"
         style="fill-rule:evenodd" />
      <rect
         id="rect1866"
         height="6"
         width="65"
         y="249"
         x="483" />
      <path
         id="path1868"
         d="M 568,262.114 C 562.38,251.066 553.124,249 548.909,249 548,249 548,249 548,250.257 v 2.875 c 0,0.988 0,1.257 0.578,1.257 2.563,0 6.612,0.36 10.331,2.336 4.463,2.425 6.116,5.299 7.19,7.006 0.083,0.269 0.331,0.269 0.909,0.269 0.909,0 0.992,-0.09 0.992,-1.168 v -0.718"
         inkscape:connector-curvature="0"
         style="fill-rule:evenodd" />
      <path
         id="path1870"
         d="M 587,250.257 C 587,249 587,249 586.045,249 581.62,249 571.901,251.156 566,262.114 v 0.718 c 0,1.078 0.087,1.168 1.041,1.168 0.868,0 0.868,-0.09 1.128,-0.359 3.558,-5.928 9.459,-9.072 18.31,-9.252 0.521,0 0.521,-0.359 0.521,-1.257 v -2.875"
         inkscape:connector-curvature="0"
         style="fill-rule:evenodd" />
      <rect
         id="rect1872"
         height="6"
         width="65"
         y="249"
         x="587" />
      <path
         id="path1874"
         d="m 672,241.168 c 0,-1.078 -0.087,-1.168 -1.041,-1.168 -0.868,0 -0.868,0.09 -1.128,0.359 -3.558,5.928 -9.459,9.072 -18.31,9.252 -0.521,0 -0.521,0.269 -0.521,1.257 v 2.875 c 0,1.167 0,1.257 0.955,1.257 4.425,0 14.144,-2.156 20.045,-13.114 v -0.718"
         inkscape:connector-curvature="0"
         style="fill-rule:evenodd" />
      <path
         id="path1876"
         d="m 568.203,278.548 c 0,-0.966 0,-1.406 2.836,-1.406 h 1.031 V 276 c -0.601,0.088 -4.039,0.176 -5.156,0.176 -1.719,0 -4.898,-0.088 -5.156,-0.176 v 1.142 h 1.031 c 2.836,0 2.836,0.44 2.836,1.406 v 13.18 c -4.469,-0.966 -4.641,-5.448 -4.641,-7.556 0,-0.352 0,-4.13 -3.007,-4.13 h -1.118 c -0.429,0 -0.859,0 -0.859,0.439 0,0.352 0.344,0.44 0.43,0.44 1.89,0.175 1.89,2.987 1.89,3.251 0,1.23 0.086,3.866 1.977,6.062 1.117,1.23 2.922,2.197 5.328,2.461 v 1.757 c 0,1.054 0,1.406 -2.836,1.406 h -1.031 V 297 c 0.601,-0.088 4.039,-0.176 5.156,-0.176 1.805,0 4.898,0.088 5.156,0.176 v -1.142 h -1.031 c -2.836,0 -2.836,-0.352 -2.836,-1.406 v -1.757 c 3.438,-0.352 4.813,-1.758 5.5,-2.549 1.375,-1.405 1.977,-3.954 1.977,-5.272 0,-1.054 0,-1.933 0.515,-2.899 0.43,-0.879 0.946,-0.967 1.461,-1.054 0.258,0 0.344,-0.264 0.344,-0.44 0,-0.439 -0.344,-0.439 -0.773,-0.439 h -1.204 c -2.664,0 -3.007,2.812 -3.007,4.745 0,2.372 -0.86,6.238 -4.813,6.941 v -13.18"
         inkscape:connector-curvature="0"
         style="fill-rule:evenodd" />
    </g>
    <g
       id="g1962"
       transform="matrix(0.26458333,0,0,0.26458333,-80.56291,82.552469)"
       clip-path="url(#clip0-6)">
      <rect
         id="rect1942"
         height="3"
         width="313"
         y="-37"
         x="547" />
      <rect
         id="rect1944"
         height="96"
         width="2"
         y="-34"
         x="547" />
      <path
         id="path1946"
         d="m 581.656,13.3274 c 0,-1.3274 -1.065,-1.1947 -1.893,-1.1947 l -7.333,0.3983 c -0.946,0.1327 -2.011,0.1327 -2.011,1.9911 0,1.1947 1.065,1.1947 1.656,1.1947 0.71,0 1.774,0.1328 2.484,0.1328 L 569,40.8053 C 569,41.7345 569.71,42 570.419,42 h 1.656 c 6.269,-1.0619 14.194,-4.3805 20.699,-10.4867 7.925,-7.4337 9.226,-15.7965 9.226,-16.4602 0,-1.4602 -0.946,-2.9204 -2.839,-2.9204 -0.828,0 -3.075,0.3983 -3.903,3.4514 -1.301,5.4425 -3.667,10.2212 -7.215,14.3363 -1.892,1.9911 -5.914,6.3716 -11.946,8.6283 l 5.559,-25.2213"
         inkscape:connector-curvature="0"
         style="fill-rule:evenodd" />
      <path
         id="path1948"
         d="m 660.003,20.5641 c 0.822,0 1.997,0 1.997,-1.282 C 662,18 660.825,18 660.003,18 H 624.88 c -0.823,0 -1.88,0 -1.88,1.2821 0,1.282 1.057,1.282 1.997,1.282 z m 0,12.4359 c 0.822,0 1.997,0 1.997,-1.2821 0,-1.282 -1.175,-1.282 -1.997,-1.282 h -35.006 c -0.94,0 -1.997,0 -1.997,1.282 C 623,33 624.057,33 624.88,33 h 35.123"
         inkscape:connector-curvature="0"
         style="fill-rule:evenodd" />
      <path
         id="path1950"
         d="M 708.763,14.3684 722.689,1.34211 c 1.276,-1.184215 3.713,-1.184215 5.454,-1.184215 h 0.929 V -3 c -2.321,0.26316 -5.571,0.26316 -5.919,0.26316 -2.205,0 -6.383,0 -8.472,-0.26316 v 3.157895 c 0.813,0 1.973,0 3.366,0.263158 0.928,0.263158 0.232,0.263158 0.812,0.394736 L 697.39,21.0789 V 0.157895 h 6.267 V -3 c -2.205,0.26316 -7.892,0.26316 -10.329,0.26316 -2.553,0 -8.123,0 -10.328,-0.26316 v 3.157895 h 6.267 V 38.9737 H 683 V 42 c 2.205,-0.1316 7.775,-0.1316 10.328,-0.1316 2.437,0 8.124,0 10.329,0.1316 V 38.9737 H 697.39 V 25.1579 l 5.803,-5.3947 11.953,17.7631 c 0.232,0.3948 0.232,0.5263 0.464,0.9211 -1.045,0.5263 -2.205,0.5263 -4.178,0.5263 V 42 c 2.321,-0.1316 7.543,-0.1316 10.096,-0.1316 2.321,0 6.383,0 8.472,0.1316 v -3.0263 h -1.625 c -3.133,0 -3.249,-0.2632 -3.945,-1.3158 L 708.763,14.3684"
         inkscape:connector-curvature="0"
         style="fill-rule:evenodd" />
      <path
         id="path1952"
         d="M 763.398,4 C 763.97,4 765,4 765,2.94118 765,2 764.085,2 763.398,2 H 739.602 C 738.915,2 738,2 738,2.94118 738,4 738.915,4 739.602,4 h 23.796"
         inkscape:connector-curvature="0"
         style="fill-rule:evenodd" />
      <path
         id="path1954"
         d="m 783.331,-14.6638 c 0,-1.3362 -0.118,-1.3362 -1.3,-1.3362 -2.598,2.9397 -6.377,2.9397 -8.031,2.9397 v 1.737 c 0.945,0 3.661,0 5.906,-1.3362 V 11.125 c 0,1.4698 0,2.1379 -4.134,2.1379 h -1.536 V 15 c 0.709,-0.1336 5.788,-0.2672 7.323,-0.2672 1.299,0 6.496,0.1336 7.441,0.2672 v -1.7371 h -1.654 c -4.015,0 -4.015,-0.6681 -4.015,-2.1379 v -25.7888"
         inkscape:connector-curvature="0"
         style="fill-rule:evenodd" />
      <path
         id="path1956"
         d="m 820.188,2.16177 c 0,-2.2500054 0,-3.17648 5.527,-3.17648 h 1.843 V -3 c -2.073,0.13235 -7.37,0.13235 -9.673,0.13235 -2.418,0 -7.715,0 -9.788,-0.13235 v 1.98529 h 1.958 c 5.412,0 5.412,0.9264746 5.412,3.17648 V 31.5441 c -7.485,-2.3823 -7.831,-12.5735 -7.831,-16.8088 0,-7.94118 -2.533,-9.26471 -5.066,-9.26471 h -2.188 c -0.806,0 -1.382,0 -1.382,0.79412 0,0.2647 0.115,0.66176 0.461,0.66176 1.957,0.26471 3.339,1.19118 3.454,9.00003 0,1.4559 0.115,6.75 2.879,11.1176 2.303,3.5735 5.758,5.5588 9.673,6.0883 v 3.7058 c 0,2.25 0,3.1765 -5.412,3.1765 h -1.958 V 42 c 2.073,-0.1324 7.37,-0.1324 9.673,-0.1324 2.418,0 7.715,0 9.788,0.1324 v -1.9853 h -1.843 c -5.527,0 -5.527,-0.7941 -5.527,-3.1765 v -3.7058 c 4.145,-0.5295 7.715,-2.5148 9.903,-5.9559 2.994,-4.7647 3.109,-9.9265 3.109,-12.8383 0,-1.0588 0,-6.88232 3.109,-7.41173 0.346,0 0.691,-0.13235 0.691,-0.66176 0,-0.79412 -0.461,-0.79412 -1.267,-0.79412 h -2.188 c -2.303,0 -5.066,0.52941 -5.181,10.05881 0,7.2794 -1.958,14.2941 -8.176,16.0147 V 2.16177"
         inkscape:connector-curvature="0"
         style="fill-rule:evenodd" />
      <rect
         id="rect1958"
         height="96"
         width="2"
         y="-34"
         x="858" />
      <rect
         id="rect1960"
         height="2"
         width="313"
         y="62"
         x="547" />
    </g>
    <g
       id="g2080"
       transform="matrix(0.29228497,0,0,0.30642856,0.38464126,29.370658)"
       clip-path="url(#clip0-5)">
      <path
         id="path1988"
         d="m 107,273 c 0,10.243 7.393,18 15.987,18 7.485,0 12.013,-6.862 12.013,-12.63 0,-0.497 0,-0.795 -0.554,-0.795 -0.555,0 -0.555,0.298 -0.555,0.795 -0.37,7.061 -5.267,11.138 -10.35,11.138 -2.772,0 -11.828,-1.69 -11.828,-16.508 0,-14.818 8.964,-16.508 11.828,-16.508 4.99,0 9.056,4.475 9.98,11.735 0.093,0.696 0.093,0.895 0.74,0.895 0.739,0 0.739,-0.199 0.739,-1.194 v -11.735 c 0,-0.895 0,-1.193 -0.462,-1.193 -0.185,0 -0.37,0 -0.739,0.597 l -2.311,3.58 C 129.825,257.387 127.422,255 122.987,255 114.393,255 107,262.856 107,273"
         inkscape:connector-curvature="0"
         style="fill-rule:evenodd" />
      <path
         id="path1990"
         d="M 160,279.751 C 160,273.323 155.249,268 149.452,268 143.561,268 139,273.424 139,279.751 139,286.179 143.941,291 149.452,291 155.154,291 160,286.079 160,279.751 Z m -10.548,9.943 c -1.995,0 -4.085,-1.004 -5.321,-3.314 -1.235,-2.21 -1.235,-5.223 -1.235,-7.031 0,-2.008 0,-4.72 1.14,-6.93 1.235,-2.31 3.516,-3.314 5.416,-3.314 2.091,0 4.086,1.105 5.322,3.214 1.235,2.209 1.235,5.122 1.235,7.03 0,1.808 0,4.42 -1.045,6.629 -1.045,2.31 -3.136,3.716 -5.512,3.716"
         inkscape:connector-curvature="0"
         style="fill-rule:evenodd" />
      <path
         id="path1992"
         d="m 166.588,273.123 v 13.904 c 0,2.405 -0.552,2.405 -3.588,2.405 V 291 c 1.564,0 3.956,-0.105 5.152,-0.105 1.196,0 3.588,0.105 5.152,0.105 v -1.568 c -3.128,0 -3.588,0 -3.588,-2.405 v -9.513 c 0,-5.437 3.22,-8.364 6.164,-8.364 2.944,0 3.404,2.823 3.404,5.75 v 12.127 c 0,2.405 -0.46,2.405 -3.588,2.405 V 291 c 1.656,0 3.956,-0.105 5.244,-0.105 1.196,0 3.588,0.105 5.06,0.105 v -1.568 c -2.3,0 -3.496,0 -3.496,-1.568 v -9.932 c 0,-4.496 0,-6.168 -1.472,-8.05 -0.644,-0.837 -2.116,-1.882 -4.784,-1.882 -3.404,0 -5.52,2.195 -6.808,5.436 V 268 l -6.44,0.523 v 1.672 c 3.22,0 3.588,0.314 3.588,2.928"
         inkscape:connector-curvature="0"
         style="fill-rule:evenodd" />
      <path
         id="path1994"
         d="m 204.664,273.878 c 0.471,-1.095 1.225,-3.285 4.336,-3.285 V 269 c -1.037,0.1 -2.451,0.199 -3.488,0.199 -1.131,0 -3.299,-0.099 -4.147,-0.199 v 1.593 c 1.791,0 2.262,1.194 2.262,2.09 0,0.498 -0.094,0.697 -0.283,1.195 l -4.807,12.642 -5.279,-13.837 c -0.283,-0.597 -0.283,-0.697 -0.283,-0.796 0,-1.294 1.886,-1.294 2.734,-1.294 V 269 c -1.414,0.1 -4.053,0.199 -5.09,0.199 -1.32,0 -3.205,-0.099 -4.619,-0.199 v 1.593 c 3.016,0 3.205,0.298 3.77,1.792 l 6.787,17.62 c 0.283,0.696 0.377,0.995 0.943,0.995 0.66,0 0.848,-0.498 1.037,-0.995 l 6.127,-16.127"
         inkscape:connector-curvature="0"
         style="fill-rule:evenodd" />
      <path
         id="path1996"
         d="m 213.917,277.843 c 0.28,-7.533 4.104,-8.738 5.689,-8.738 4.85,0 5.316,6.729 5.316,8.738 z m -0.093,1.004 h 12.964 c 1.025,0 1.212,0 1.212,-1.004 0,-5.022 -2.518,-9.843 -8.394,-9.843 -5.316,0 -9.606,5.122 -9.606,11.45 0,6.629 4.85,11.55 10.166,11.55 5.689,0 7.834,-5.624 7.834,-6.528 0,-0.503 -0.373,-0.603 -0.653,-0.603 -0.373,0 -0.466,0.301 -0.559,0.703 -1.679,5.122 -5.876,5.122 -6.342,5.122 -2.332,0 -4.197,-1.506 -5.223,-3.314 -1.399,-2.411 -1.399,-5.725 -1.399,-7.533"
         inkscape:connector-curvature="0"
         style="fill-rule:evenodd" />
      <path
         id="path1998"
         d="m 234.574,273.123 v 13.904 c 0,2.405 -0.458,2.405 -3.574,2.405 V 291 c 1.649,0 3.94,-0.105 5.131,-0.105 1.192,0 3.574,0.105 5.132,0.105 v -1.568 c -3.024,0 -3.574,0 -3.574,-2.405 v -9.513 c 0,-5.437 3.299,-8.364 6.231,-8.364 2.841,0 3.391,2.823 3.391,5.75 v 12.127 c 0,2.405 -0.55,2.405 -3.574,2.405 V 291 c 1.558,0 3.94,-0.105 5.132,-0.105 1.191,0 3.573,0.105 5.131,0.105 v -1.568 c -2.382,0 -3.482,0 -3.574,-1.568 v -9.932 c 0,-4.496 0,-6.168 -1.374,-8.05 -0.642,-0.837 -2.199,-1.882 -4.857,-1.882 -3.299,0 -5.498,2.195 -6.781,5.436 V 268 L 231,268.523 v 1.672 c 3.207,0 3.574,0.314 3.574,2.928"
         inkscape:connector-curvature="0"
         style="fill-rule:evenodd" />
      <path
         id="path2000"
         d="m 261.91,270.042 h 6.372 v -1.636 H 261.91 V 259 h -1.166 c 0,4.192 -1.347,9.712 -5.744,9.917 v 1.125 h 3.769 v 14.006 c 0,6.339 4.218,6.952 5.834,6.952 3.141,0 4.397,-3.681 4.397,-6.952 v -2.863 h -1.077 v 2.761 c 0,3.782 -1.346,5.725 -3.051,5.725 -2.962,0 -2.962,-4.601 -2.962,-5.521 v -14.108"
         inkscape:connector-curvature="0"
         style="fill-rule:evenodd" />
      <path
         id="path2002"
         d="m 280.792,267.877 -6.603,0.525 v 1.682 c 3.019,0 3.49,0.315 3.49,2.838 v 14.084 c 0,2.417 -0.566,2.417 -3.679,2.417 V 291 c 1.509,0 4.057,-0.105 5.189,-0.105 1.603,0 3.207,0.105 4.811,0.105 v -1.577 c -3.019,0 -3.208,-0.315 -3.208,-2.312 z m 0.189,-9.144 c 0,-1.682 -1.226,-2.733 -2.547,-2.733 -1.415,0 -2.453,1.366 -2.453,2.733 0,1.366 1.038,2.732 2.453,2.732 1.321,0 2.547,-1.051 2.547,-2.732"
         inkscape:connector-curvature="0"
         style="fill-rule:evenodd" />
      <path
         id="path2004"
         d="M 307,279.751 C 307,273.323 302.545,268 297,268 c -5.636,0 -10,5.424 -10,11.751 0,6.428 4.636,11.249 10,11.249 5.455,0 10,-4.921 10,-11.249 z m -10,9.943 c -1.909,0 -3.909,-1.004 -5.182,-3.314 -1.091,-2.21 -1.091,-5.223 -1.091,-7.031 0,-2.008 0,-4.72 1.091,-6.93 1.182,-2.31 3.364,-3.314 5.182,-3.314 2,0 3.909,1.105 5.091,3.214 1.182,2.209 1.182,5.122 1.182,7.03 0,1.808 0,4.42 -1,6.629 -1,2.31 -3,3.716 -5.273,3.716"
         inkscape:connector-curvature="0"
         style="fill-rule:evenodd" />
      <path
         id="path2006"
         d="m 313.574,273.123 v 13.904 c 0,2.405 -0.55,2.405 -3.574,2.405 V 291 c 1.558,0 3.94,-0.105 5.131,-0.105 1.192,0 3.574,0.105 5.132,0.105 v -1.568 c -3.116,0 -3.574,0 -3.574,-2.405 v -9.513 c 0,-5.437 3.207,-8.364 6.14,-8.364 2.932,0 3.39,2.823 3.39,5.75 v 12.127 c 0,2.405 -0.458,2.405 -3.574,2.405 V 291 c 1.65,0 3.941,-0.105 5.224,-0.105 1.191,0 3.573,0.105 5.131,0.105 v -1.568 c -2.382,0 -3.574,0 -3.574,-1.568 v -9.932 c 0,-4.496 0,-6.168 -1.466,-8.05 -0.641,-0.837 -2.107,-1.882 -4.765,-1.882 -3.39,0 -5.498,2.195 -6.781,5.436 V 268 L 310,268.523 v 1.672 c 3.207,0 3.574,0.314 3.574,2.928"
         inkscape:connector-curvature="0"
         style="fill-rule:evenodd" />
      <path
         id="path2008"
         d="m 349.594,286.581 c 0.187,2.009 1.406,4.118 3.656,4.118 0.938,0 3.75,-0.703 3.75,-4.721 v -2.812 h -1.125 v 2.812 c 0,2.913 -1.125,3.214 -1.687,3.214 -1.5,0 -1.688,-2.31 -1.688,-2.511 v -10.043 c 0,-2.11 0,-4.018 -1.688,-5.926 -1.874,-1.909 -4.218,-2.712 -6.468,-2.712 -3.844,0 -7.032,2.31 -7.032,5.624 0,1.507 0.938,2.411 2.157,2.411 1.312,0 2.156,-1.004 2.156,-2.31 0,-0.603 -0.281,-2.31 -2.437,-2.31 1.312,-1.808 3.562,-2.31 5.062,-2.31 2.344,0 4.969,1.908 4.969,6.428 v 1.808 c -2.344,0.2 -5.625,0.301 -8.625,1.807 -3.469,1.708 -4.594,4.319 -4.594,6.529 0,4.017 4.5,5.323 7.406,5.323 3.094,0 5.25,-2.009 6.188,-4.419 z m -0.375,-8.136 v 4.922 c 0,4.821 -3.375,6.528 -5.438,6.528 -2.343,0 -4.219,-1.808 -4.219,-4.319 0,-2.711 1.969,-6.829 9.657,-7.131"
         inkscape:connector-curvature="0"
         style="fill-rule:evenodd" />
      <path
         id="path2010"
         d="M 365.486,255 359,255.624 v 1.561 c 3.153,0 3.514,0.312 3.514,2.913 v 26.948 c 0,2.393 -0.451,2.393 -3.514,2.393 V 291 c 1.532,0 3.874,-0.104 5.045,-0.104 1.081,0 3.243,0.104 4.955,0.104 v -1.561 c -2.973,0 -3.514,0 -3.514,-2.393 V 255"
         inkscape:connector-curvature="0"
         style="fill-rule:evenodd" />
      <path
         id="path2012"
         d="m 391.698,267.877 -6.509,0.525 v 1.682 c 3.019,0 3.396,0.315 3.396,2.838 v 14.084 c 0,2.417 -0.472,2.417 -3.585,2.417 V 291 c 1.509,0 3.962,-0.105 5.094,-0.105 1.698,0 3.302,0.105 4.906,0.105 v -1.577 c -3.113,0 -3.302,-0.315 -3.302,-2.312 z m 0.189,-9.144 c 0,-1.682 -1.132,-2.733 -2.453,-2.733 -1.509,0 -2.547,1.366 -2.547,2.733 0,1.366 1.038,2.732 2.547,2.732 1.321,0 2.453,-1.051 2.453,-2.732"
         inkscape:connector-curvature="0"
         style="fill-rule:evenodd" />
      <path
         id="path2014"
         d="m 423,277.824 h -1.186 c -0.456,5.147 -1.095,11.632 -9.124,11.632 h -3.741 c -2.099,0 -2.19,-0.412 -2.19,-2.059 v -27.382 c 0,-1.75 0,-2.471 4.288,-2.471 h 1.552 V 256 c -1.643,0.103 -5.84,0.103 -7.665,0.103 -1.825,0 -5.292,0 -6.934,-0.103 v 1.544 h 1.095 c 3.467,0 3.558,0.515 3.558,2.368 v 27.073 c 0,1.853 -0.091,2.471 -3.558,2.471 H 398 V 291 h 23.723 L 423,277.824"
         inkscape:connector-curvature="0"
         style="fill-rule:evenodd" />
      <path
         id="path2016"
         d="m 440.307,289.453 c -2.498,-1.004 -7.68,-4.62 -7.68,-16.172 0,-13.058 6.477,-17.076 10.734,-17.076 4.442,0 10.735,4.32 10.735,17.076 0,3.918 -0.556,10.949 -5.46,14.866 -1.018,-2.812 -2.499,-5.323 -5.182,-5.323 -2.406,0 -3.794,2.209 -3.794,4.218 0,1.407 0.555,2.311 0.647,2.411 z m 7.126,-0.502 c -1.573,1.004 -3.054,1.205 -4.072,1.205 -2.313,0 -2.683,-2.31 -2.683,-3.114 0,-1.406 0.925,-3.113 2.776,-3.113 2.406,0 3.424,2.109 3.979,5.022 z m 1.851,1.004 c 5.459,-2.712 9.438,-9.04 9.438,-16.674 0,-10.245 -7.032,-18.281 -15.361,-18.281 -8.328,0 -15.361,7.935 -15.361,18.281 0,10.145 6.94,18.081 15.361,18.081 1.388,0 3.054,-0.302 4.349,-0.704 0.741,4.721 1.389,9.342 5.645,9.342 4.72,0 5.645,-6.629 5.645,-9.241 0,-0.502 0,-1.005 -0.555,-1.005 -0.37,0 -0.463,0.402 -0.463,0.904 -0.278,2.713 -2.221,4.219 -4.257,4.219 -2.128,0 -3.331,-1.707 -4.441,-4.922"
         inkscape:connector-curvature="0"
         style="fill-rule:evenodd" />
      <path
         id="path2018"
         d="M 471.914,272.353 V 259.49 c 0,-1.197 0,-1.795 1.043,-1.895 0.474,-0.099 1.896,-0.099 2.845,-0.099 4.267,0 9.482,0.199 9.482,7.379 0,3.49 -1.137,7.478 -8.06,7.478 z m 9.957,0.698 c 4.646,-1.196 8.345,-4.287 8.345,-8.176 0,-4.787 -5.406,-8.875 -12.328,-8.875 H 463 v 1.496 h 1.138 c 3.603,0 3.698,0.498 3.698,2.293 v 26.225 c 0,1.795 -0.095,2.393 -3.698,2.393 H 463 v 1.496 c 1.707,-0.1 5.026,-0.1 6.922,-0.1 1.802,0 5.216,0 6.923,0.1 v -1.496 h -1.138 c -3.698,0 -3.793,-0.598 -3.793,-2.393 V 273.45 h 5.5 c 0.758,0 2.75,0 4.362,1.695 1.802,1.795 1.802,3.391 1.802,6.681 0,3.191 0,5.185 1.896,7.08 1.992,1.795 4.552,2.094 5.974,2.094 3.699,0 4.552,-4.088 4.552,-5.484 0,-0.299 0,-0.798 -0.664,-0.798 -0.474,0 -0.474,0.399 -0.569,0.798 -0.284,3.49 -1.896,4.387 -3.129,4.387 -2.276,0 -2.655,-2.493 -3.319,-7.179 l -0.664,-3.889 c -0.853,-3.191 -3.129,-4.886 -5.784,-5.784"
         inkscape:connector-curvature="0"
         style="fill-rule:evenodd" />
      <rect
         id="rect2020"
         height="2"
         width="392"
         y="306"
         x="104" />
      <rect
         id="rect2022"
         height="2"
         width="392"
         y="317"
         x="104" />
      <rect
         id="rect2024"
         height="2"
         width="89"
         y="255"
         x="-3" />
      <rect
         id="rect2026"
         height="72"
         width="3"
         y="257"
         x="-3" />
      <path
         id="path2028"
         d="M 32.4946,276.623 H 39 V 274 c -2.2826,0.114 -7.875,0.114 -10.5,0.114 -2.625,0 -8.2174,0 -10.5,-0.114 v 2.623 h 6.5054 v 33.64 H 18 V 313 c 2.2826,-0.228 7.875,-0.228 10.5,-0.228 2.625,0 8.2174,0 10.5,0.228 v -2.737 h -6.5054 v -33.64"
         inkscape:connector-curvature="0"
         style="fill-rule:evenodd" />
      <path
         id="path2030"
         d="M 58.8378,276.623 H 65 V 274 c -2.2703,0.114 -7.4595,0.114 -9.9459,0.114 -2.4865,0 -7.7838,0 -10.0541,-0.114 v 2.623 h 6.1622 v 33.64 H 45 V 313 c 2.2703,-0.228 7.5676,-0.228 10.0541,-0.228 2.4864,0 7.6756,0 9.9459,0.228 v -2.737 h -6.1622 v -33.64"
         inkscape:connector-curvature="0"
         style="fill-rule:evenodd" />
      <rect
         id="rect2032"
         height="72"
         width="2"
         y="257"
         x="84" />
      <rect
         id="rect2034"
         height="3"
         width="89"
         y="329"
         x="-3" />
      <path
         id="path2036"
         d="M 37.478,381.924 C 37.3079,381.277 37.2229,381 36.5425,381 c -0.6803,0 -0.8504,0.277 -1.0205,0.924 l -8.8446,27.547 c -0.7654,2.403 -2.3812,3.05 -4.6774,3.142 V 414 c 0.9355,0 2.7214,-0.092 4.2522,-0.092 1.3607,0 3.5718,0.092 4.9325,0.092 v -1.387 c -2.126,0 -3.2316,-1.201 -3.2316,-2.403 0,-0.092 0.085,-0.555 0.085,-0.647 l 1.956,-6.101 h 10.4604 l 2.2962,7.118 c 0,0.185 0.0851,0.462 0.0851,0.647 0,1.386 -2.3813,1.386 -3.4868,1.386 V 414 c 1.5308,-0.092 4.5073,-0.092 6.1231,-0.092 1.786,0 3.742,0 5.5279,0.092 v -1.387 h -0.7654 c -2.5513,0 -3.1466,-0.369 -3.5718,-1.848 z m -2.2111,5.177 4.7624,14.975 h -9.5249 z"
         inkscape:connector-curvature="0"
         style="fill-rule:evenodd" />
      <path
         id="path2038"
         d="m 54,383 v 1.455 h 1.0388 c 3.2896,0 3.3761,0.454 3.3761,2.09 v 23.91 c 0,1.636 -0.0865,2.181 -3.3761,2.181 H 54 V 414 H 69.7552 C 77.0269,414 83,407.273 83,398.727 83,390.182 77.1134,383 69.7552,383 Z m 10.2149,29.636 c -1.991,0 -2.0776,-0.363 -2.0776,-1.818 v -24.545 c 0,-1.546 0.0866,-1.818 2.0776,-1.818 h 4.3284 c 2.6836,0 5.7134,1 7.8776,4.181 1.8179,2.728 2.2507,6.637 2.2507,10.091 0,5.091 -0.8656,7.818 -2.3373,10 -0.8656,1.273 -3.3761,3.909 -7.7044,3.909 h -4.415"
         inkscape:connector-curvature="0"
         style="fill-rule:evenodd" />
      <path
         id="path2040"
         d="m 104.417,395.661 h 5.916 v -1.431 h -5.916 V 386 h -1.084 c 0,3.668 -1.25,8.498 -5.333,8.677 v 0.984 h 3.5 v 12.256 c 0,5.546 3.917,6.083 5.417,6.083 2.916,0 4.083,-3.22 4.083,-6.083 v -2.505 h -1.083 v 2.415 c 0,3.31 -1.167,5.01 -2.75,5.01 -2.75,0 -2.75,-4.026 -2.75,-4.831 v -12.345"
         inkscape:connector-curvature="0"
         style="fill-rule:evenodd" />
      <path
         id="path2042"
         d="M 134,403.638 C 134,397.769 129.701,393 124.543,393 c -5.416,0 -9.543,4.952 -9.543,10.638 0,5.96 4.471,10.362 9.457,10.362 5.244,0 9.543,-4.493 9.543,-10.362 z m -9.457,9.17 c -1.891,0 -3.783,-0.917 -4.9,-3.026 -1.118,-2.018 -1.118,-4.861 -1.118,-6.511 0,-1.743 0,-4.219 1.032,-6.236 1.203,-2.109 3.181,-3.026 4.9,-3.026 1.891,0 3.783,1.008 4.9,2.934 1.118,1.926 1.118,4.585 1.118,6.328 0,1.65 0,4.126 -0.946,6.144 -0.945,2.109 -2.837,3.393 -4.986,3.393"
         inkscape:connector-curvature="0"
         style="fill-rule:evenodd" />
      <path
         id="path2044"
         d="M 156,403.638 C 156,397.769 151.768,393 146.5,393 c -5.355,0 -9.5,4.952 -9.5,10.638 0,5.96 4.405,10.362 9.5,10.362 5.182,0 9.5,-4.493 9.5,-10.362 z m -9.5,9.17 c -1.814,0 -3.714,-0.917 -4.923,-3.026 -1.036,-2.018 -1.036,-4.861 -1.036,-6.511 0,-1.743 0,-4.219 1.036,-6.236 1.123,-2.109 3.196,-3.026 4.923,-3.026 1.9,0 3.714,1.008 4.836,2.934 1.123,1.926 1.123,4.585 1.123,6.328 0,1.65 0,4.126 -0.95,6.144 -0.95,2.109 -2.85,3.393 -5.009,3.393"
         inkscape:connector-curvature="0"
         style="fill-rule:evenodd" />
      <path
         id="path2046"
         d="M 164.838,382 159,382.462 v 1.48 c 2.838,0 3.162,0.278 3.162,2.59 v 23.954 c 0,2.127 -0.405,2.127 -3.162,2.127 V 414 c 1.378,0 3.486,-0.092 4.541,-0.092 0.973,0 2.918,0.092 4.459,0.092 v -1.387 c -2.757,0 -3.162,0 -3.162,-2.127 V 382"
         inkscape:connector-curvature="0"
         style="fill-rule:evenodd" />
      <path
         id="path2048"
         d="m 178.472,404.555 c 0.945,0.183 4.467,0.917 4.467,4.218 0,2.384 -1.546,4.218 -4.896,4.218 -3.522,0 -5.068,-2.659 -5.926,-6.511 -0.086,-0.642 -0.172,-0.825 -0.602,-0.825 -0.515,0 -0.515,0.367 -0.515,1.192 v 6.053 c 0,0.733 0,1.1 0.429,1.1 0.258,0 0.258,-0.092 1.117,-0.917 0.086,-0.092 0.086,-0.183 0.859,-1.1 1.889,1.925 3.779,2.017 4.638,2.017 4.982,0 6.957,-3.118 6.957,-6.419 0,-2.384 -1.288,-3.76 -1.804,-4.31 -1.46,-1.468 -3.092,-1.834 -4.895,-2.201 -2.405,-0.55 -5.24,-1.101 -5.24,-3.76 0,-1.651 1.117,-3.485 4.724,-3.485 4.724,0 4.982,4.127 5.068,5.503 0,0.458 0.429,0.458 0.515,0.458 0.515,0 0.515,-0.275 0.515,-1.1 V 394.1 c 0,-0.825 0,-1.1 -0.429,-1.1 -0.258,0 -0.344,0 -0.859,0.55 -0.172,0.184 -0.601,0.55 -0.773,0.734 C 180.19,393 178.472,393 177.785,393 c -5.153,0 -6.785,3.026 -6.785,5.594 0,1.559 0.687,2.843 1.804,3.851 1.374,1.193 2.576,1.468 5.668,2.11"
         inkscape:connector-curvature="0"
         style="fill-rule:evenodd" />
      <path
         id="path2050"
         d="M 218,403.638 C 218,397.769 213.701,393 208.543,393 c -5.33,0 -9.543,4.952 -9.543,10.638 0,5.96 4.471,10.362 9.457,10.362 5.244,0 9.543,-4.493 9.543,-10.362 z m -9.457,9.17 c -1.891,0 -3.783,-0.917 -4.9,-3.026 -1.032,-2.018 -1.032,-4.861 -1.032,-6.511 0,-1.743 0,-4.219 1.032,-6.236 1.117,-2.109 3.095,-3.026 4.814,-3.026 1.891,0 3.783,1.008 4.9,2.934 1.118,1.926 1.118,4.585 1.118,6.328 0,1.65 0,4.126 -0.946,6.144 -0.945,2.109 -2.837,3.393 -4.986,3.393"
         inkscape:connector-curvature="0"
         style="fill-rule:evenodd" />
      <path
         id="path2052"
         d="m 224.263,398.364 v 12.181 c 0,2.091 -0.418,2.091 -3.263,2.091 V 414 c 1.506,0 3.598,-0.091 4.769,-0.091 1.088,0 3.263,0.091 4.602,0.091 v -1.364 c -2.761,0 -3.18,0 -3.18,-2.091 v -8.363 c 0,-4.727 2.929,-7.182 5.606,-7.182 2.593,0 3.095,2.364 3.095,5 v 10.545 c 0,2.091 -0.502,2.091 -3.263,2.091 V 414 c 1.423,0 3.598,-0.091 4.686,-0.091 1.087,0 3.263,0.091 4.685,0.091 v -1.364 c -2.175,0 -3.179,0 -3.263,-1.363 v -8.728 c 0,-3.909 0,-5.272 -1.255,-6.909 -0.586,-0.727 -2.008,-1.636 -4.434,-1.636 -3.012,0 -4.936,1.909 -6.108,4.727 V 394 l -5.94,0.455 v 1.454 c 2.928,0 3.263,0.273 3.263,2.455"
         inkscape:connector-curvature="0"
         style="fill-rule:evenodd" />
      <path
         id="path2054"
         d="m 247.758,403.454 c 0,-7.428 3.579,-9.354 5.995,-9.354 0.358,0 3.221,0.092 4.742,1.651 -1.79,0.184 -2.058,1.559 -2.058,2.109 0,1.192 0.805,2.109 2.058,2.109 1.163,0 2.058,-0.733 2.058,-2.109 0,-3.118 -3.4,-4.86 -6.89,-4.86 -5.547,0 -9.663,4.86 -9.663,10.546 0,5.869 4.474,10.454 9.574,10.454 5.994,0 7.426,-5.502 7.426,-5.961 0,-0.458 -0.447,-0.458 -0.537,-0.458 -0.447,0 -0.537,0.183 -0.626,0.458 -1.253,4.219 -4.205,4.769 -5.816,4.769 -2.416,0 -6.263,-1.926 -6.263,-9.354"
         inkscape:connector-curvature="0"
         style="fill-rule:evenodd" />
      <path
         id="path2056"
         d="m 266.482,401.895 c 0.249,-6.786 3.73,-7.886 5.14,-7.886 4.311,0 4.642,6.144 4.642,7.886 z m 0,1.009 h 11.523 c 0.912,0 0.995,0 0.995,-1.009 0,-4.493 -2.238,-8.895 -7.378,-8.895 -4.809,0 -8.622,4.677 -8.622,10.362 0,6.145 4.394,10.638 9.119,10.638 5.057,0 6.881,-5.135 6.881,-5.961 0,-0.458 -0.332,-0.55 -0.497,-0.55 -0.415,0 -0.498,0.275 -0.581,0.642 -1.409,4.677 -5.14,4.677 -5.554,4.677 -2.073,0 -3.731,-1.376 -4.643,-3.026 -1.243,-2.201 -1.243,-5.227 -1.243,-6.878"
         inkscape:connector-curvature="0"
         style="fill-rule:evenodd" />
      <path
         id="path2058"
         d="m 289,396.419 c 0,-1.303 -1.132,-2.419 -2.547,-2.419 -1.321,0 -2.453,1.116 -2.453,2.419 0,1.395 1.132,2.511 2.453,2.511 1.415,0 2.547,-1.116 2.547,-2.511 z m 0,15.162 c 0,-1.395 -1.132,-2.511 -2.547,-2.511 -1.321,0 -2.453,1.116 -2.453,2.511 0,1.303 1.132,2.419 2.453,2.419 1.415,0 2.547,-1.116 2.547,-2.419"
         inkscape:connector-curvature="0"
         style="fill-rule:evenodd" />
      <path
         id="path2060"
         d="m 329.523,367.859 c -0.439,-2.78 -2.283,-5.291 -5.706,-5.291 -2.634,0 -5.531,0.717 -8.954,4.215 -3.6,3.676 -3.863,7.891 -3.863,9.236 0,2.78 1.931,7.981 7.989,7.981 C 329.435,384 334,368.935 334,362.568 334,355.484 329.962,351 324.519,351 c -6.321,0 -8.34,5.829 -8.34,6.995 0,0.627 0.352,1.614 1.668,1.614 1.405,0 2.371,-1.345 2.371,-2.332 0,-1.614 -1.405,-1.614 -2.107,-1.614 1.931,-3.318 5.091,-3.587 6.32,-3.587 3.248,0 6.233,2.332 6.233,8.071 0,1.793 -0.263,4.035 -1.141,7.712 z m -10.359,14.886 c -4.828,0 -4.828,-4.663 -4.828,-5.112 0,-1.166 1.053,-7.443 2.897,-10.133 1.756,-2.511 3.862,-3.946 6.584,-3.946 4.828,0 4.916,5.022 4.916,5.919 0,3.228 -2.809,13.272 -9.569,13.272"
         inkscape:connector-curvature="0"
         style="fill-rule:evenodd" />
      <path
         id="path2062"
         d="m 345.853,363.796 c 0,-0.796 -0.828,-0.796 -1.324,-0.707 l -5.13,0.265 c -0.662,0 -1.406,0.088 -1.406,1.327 0,0.797 0.744,0.797 1.158,0.797 0.496,0 1.241,0 1.737,0.088 L 337,382.204 c 0,0.619 0.496,0.796 0.993,0.796 h 1.158 c 4.385,-0.796 9.928,-3.009 14.478,-7.08 5.544,-4.955 6.371,-10.442 6.371,-10.973 0,-0.974 -0.662,-1.947 -1.903,-1.947 -0.579,0 -2.151,0.354 -2.73,2.389 -0.91,3.629 -2.565,6.815 -5.047,9.469 -1.324,1.416 -4.219,4.248 -8.356,5.753 l 3.889,-16.815"
         inkscape:connector-curvature="0"
         style="fill-rule:evenodd" />
      <rect
         id="rect2064"
         height="2"
         width="52"
         y="401"
         x="310" />
      <path
         id="path2066"
         d="m 329.718,429.37 c -0.42,-2.865 -2.1,-5.452 -5.374,-5.452 -2.604,0 -5.291,0.74 -8.565,4.343 -3.443,3.788 -3.779,8.13 -3.779,9.516 0,2.864 1.847,8.223 7.725,8.223 C 329.718,446 334,430.478 334,423.918 334,416.62 330.137,412 325.015,412 c -6.13,0 -8.061,6.005 -8.061,7.299 0,0.647 0.336,1.571 1.596,1.571 1.427,0 2.267,-1.386 2.267,-2.403 0,-1.663 -1.26,-1.663 -1.932,-1.663 1.848,-3.418 4.787,-3.695 6.046,-3.695 3.023,0 5.962,2.402 5.962,8.407 0,1.756 -0.252,4.066 -1.091,7.854 z m -9.909,15.337 c -4.618,0 -4.618,-4.712 -4.618,-5.174 0,-1.294 1.091,-7.761 2.771,-10.533 1.679,-2.587 3.778,-4.065 6.382,-4.065 4.534,0 4.618,5.174 4.618,6.098 0,3.326 -2.687,13.674 -9.153,13.674"
         inkscape:connector-curvature="0"
         style="fill-rule:evenodd" />
      <path
         id="path2068"
         d="m 353.484,437.87 c 0,0.81 0,0.99 -0.683,1.891 -1.708,2.612 -3.844,3.152 -5.125,3.152 -2.648,0 -5.21,-2.612 -5.21,-8.556 0,-6.394 3.16,-8.556 5.723,-8.556 3.245,0 5.295,3.603 5.295,5.854 z m 0.598,-10.268 C 352.544,425.351 350.238,424 347.676,424 341.441,424 337,428.053 337,434.267 c 0,6.394 4.356,10.267 10.249,10.267 2.135,0 4.014,-0.63 5.979,-2.432 v 8.737 h -2.904 V 453 c 1.11,-0.09 3.672,-0.18 5.295,-0.18 1.708,0 4.185,0.09 5.381,0.18 v -2.161 h -2.904 V 424 h -1.794 l -2.22,3.602"
         inkscape:connector-curvature="0"
         style="fill-rule:evenodd" />
      <path
         id="path2070"
         d="m 443,391.873 c 0,-5.642 -2.418,-9.873 -7.685,-9.873 -4.49,0 -8.204,3.702 -8.549,3.967 -3.454,3.526 -4.749,7.493 -4.749,7.581 0,0.265 0.259,0.265 0.431,0.265 0.864,0 1.555,-0.441 2.159,-0.882 0.777,-0.617 0.864,-0.705 1.295,-1.763 0.432,-0.882 1.382,-2.997 2.936,-4.848 1.037,-1.235 1.9,-1.852 3.627,-1.852 4.231,0 6.908,3.526 6.908,9.257 0,8.991 -6.303,17.895 -14.248,17.895 -6.131,0 -9.498,-5.025 -9.498,-11.284 0,-5.994 3.022,-12.606 9.326,-16.397 0.431,-0.264 1.727,-1.057 1.727,-1.586 C 426.68,382 426.334,382 426.248,382 424.78,382 412,389.052 412,402.187 412,408.358 415.109,414 422.276,414 430.652,414 443,405.361 443,391.873"
         inkscape:connector-curvature="0"
         style="fill:#00ff00;fill-rule:evenodd" />
      <path
         id="path2072"
         d="m 459,424.549 c 0,-0.18 0,-0.27 -0.69,-0.992 -5.431,-5.681 -6.81,-14.158 -6.81,-21.102 0,-7.756 1.638,-15.601 6.897,-21.283 C 459,380.631 459,380.541 459,380.451 459,380.09 458.828,380 458.569,380 c -0.431,0 -4.31,3.066 -6.81,8.747 -2.242,4.96 -2.759,9.92 -2.759,13.708 0,3.517 0.517,9.018 2.845,14.068 2.586,5.501 6.293,8.477 6.724,8.477 0.259,0 0.431,-0.18 0.431,-0.451"
         inkscape:connector-curvature="0"
         style="fill:#00ff00;fill-rule:evenodd" />
      <path
         id="path2074"
         d="m 465.556,410.903 c -0.171,0.619 -0.426,1.681 -0.426,1.858 0,0.797 0.596,1.239 1.192,1.239 0.511,0 1.278,-0.354 1.619,-1.239 0,-0.088 0.511,-2.212 0.766,-3.274 l 0.937,-3.983 c 0.256,-0.973 0.512,-1.946 0.767,-3.008 0.17,-0.708 0.511,-2.036 0.511,-2.213 0.682,-1.327 2.897,-5.31 6.985,-5.31 1.874,0 2.3,1.593 2.3,3.009 0,2.744 -2.129,8.407 -2.811,10.354 -0.34,0.974 -0.426,1.505 -0.426,2.036 0,2.035 1.534,3.628 3.493,3.628 4.004,0 5.537,-6.46 5.537,-6.814 0,-0.443 -0.341,-0.443 -0.511,-0.443 -0.426,0 -0.426,0.089 -0.596,0.797 -0.852,3.009 -2.215,5.487 -4.345,5.487 -0.681,0 -1.022,-0.443 -1.022,-1.505 0,-1.062 0.426,-2.124 0.767,-3.097 0.851,-2.39 2.555,-7.257 2.555,-9.735 0,-2.92 -1.789,-4.69 -4.855,-4.69 -3.834,0 -5.878,2.743 -6.645,3.805 -0.17,-2.478 -1.959,-3.805 -3.918,-3.805 -1.874,0 -2.726,1.681 -3.152,2.478 -0.682,1.504 -1.278,4.071 -1.278,4.248 0,0.442 0.426,0.442 0.511,0.442 0.426,0 0.511,0 0.767,-0.973 0.681,-3.186 1.533,-5.222 3.066,-5.222 0.852,0 1.278,0.531 1.278,1.947 0,0.974 -0.085,1.416 -0.681,3.717 l -2.385,10.266"
         inkscape:connector-curvature="0"
         style="fill:#00ff00;fill-rule:evenodd" />
      <path
         id="path2076"
         d="m 502,389.273 h -1.013 c -0.084,0.636 -0.338,2.545 -0.76,2.818 -0.253,0.273 -2.532,0.273 -2.954,0.273 h -5.403 c 3.123,-3 4.137,-3.909 5.909,-5.364 2.195,-1.909 4.221,-3.818 4.221,-6.818 0,-3.909 -3.123,-6.182 -6.922,-6.182 -3.63,0 -6.078,2.727 -6.078,5.636 0,1.637 1.266,1.819 1.519,1.819 0.76,0 1.604,-0.546 1.604,-1.728 0,-0.545 -0.253,-1.636 -1.772,-1.636 0.928,-2.273 2.954,-3 4.305,-3 2.954,0 4.474,2.454 4.474,5.091 0,2.727 -1.857,4.909 -2.786,6.091 l -7.091,7.545 C 489,394.091 489,394.091 489,395 h 12.071 L 502,389.273"
         inkscape:connector-curvature="0"
         style="fill:#00ff00;fill-rule:evenodd" />
      <path
         id="path2078"
         d="m 518,402.455 c 0,-3.517 -0.391,-8.928 -2.583,-13.978 -2.347,-5.591 -5.634,-8.477 -6.026,-8.477 -0.234,0 -0.391,0.18 -0.391,0.451 0,0.09 0,0.18 0.704,0.992 3.835,4.509 6.026,11.633 6.026,21.012 0,7.755 -1.408,15.601 -6.26,21.282 -0.47,0.542 -0.47,0.632 -0.47,0.812 0,0.271 0.157,0.451 0.391,0.451 0.392,0 3.835,-3.066 6.183,-8.838 1.956,-4.869 2.426,-9.92 2.426,-13.707"
         inkscape:connector-curvature="0"
         style="fill:#00ff00;fill-rule:evenodd" />
    </g>
    <path
       style="fill:none;stroke:#000000;stroke-width:2;stroke-linecap:butt;stroke-linejoin:miter;stroke-miterlimit:4;stroke-dasharray:none;stroke-opacity:1;marker-start:url(#Arrow2Sstart)"
       d="m 156.10417,153.825 c 11.69861,0 23.39722,0 35.09583,0"
       id="path2316"
       inkscape:connector-curvature="0"
       inkscape:path-effect="#path-effect2318"
       inkscape:original-d="M 156.10417,153.825 H 191.2" />
    <path
       style="fill:none;stroke:#000000;stroke-width:2;stroke-linecap:butt;stroke-linejoin:miter;stroke-miterlimit:4;stroke-dasharray:none;stroke-opacity:1"
       d="m 190.96302,154.84792 c 0,-24.175 0,-48.35 0,-72.525"
       id="path2324"
       inkscape:connector-curvature="0"
       inkscape:path-effect="#path-effect2326"
       inkscape:original-d="m 190.96302,154.84792 v -72.525" />
    <g
       id="g2894"
       transform="matrix(0.26458333,0,0,0.26458333,-25.675694,108.83491)"
       clip-path="url(#clip0-76)">
      <path
         id="path2860"
         d="m 220,272 c 0,11.885 8.26,21 17.743,21 8.26,0 13.257,-8.077 13.257,-14.769 0,-0.577 0,-0.923 -0.612,-0.923 -0.612,0 -0.612,0.346 -0.612,0.923 -0.408,8.192 -5.914,12.923 -11.421,12.923 -3.059,0 -13.052,-1.962 -13.052,-19.154 0,-17.192 9.891,-19.154 12.95,-19.154 5.609,0 10.096,5.192 11.115,13.616 0.102,0.807 0.102,1.038 0.816,1.038 0.816,0 0.816,-0.231 0.816,-1.385 v -13.73 c 0,-0.923 0,-1.385 -0.51,-1.385 -0.204,0 -0.408,0 -0.816,0.692 l -2.549,4.27 C 245.188,253.885 242.638,251 237.743,251 228.26,251 220,260.231 220,272"
         inkscape:connector-curvature="0"
         style="fill-rule:evenodd" />
      <path
         id="path2862"
         d="M 278,279.284 C 278,272.017 273.023,266 267.05,266 260.878,266 256,272.131 256,279.284 256,286.55 261.176,292 266.95,292 273.023,292 278,286.437 278,279.284 Z m -10.95,11.354 c -2.091,0 -4.281,-1.249 -5.674,-3.861 -1.195,-2.498 -1.195,-5.904 -1.195,-7.947 0,-2.271 0,-5.337 1.195,-7.834 1.294,-2.612 3.683,-3.747 5.574,-3.747 2.19,0 4.38,1.249 5.674,3.633 1.295,2.498 1.295,5.79 1.295,7.948 0,2.043 0,5.109 -1.095,7.607 -1.095,2.498 -3.286,4.201 -5.774,4.201"
         inkscape:connector-curvature="0"
         style="fill-rule:evenodd" />
      <path
         id="path2864"
         d="m 285.04,271.543 v 15.158 c 0,2.489 -0.518,2.489 -4.04,2.489 V 291 c 1.865,-0.113 4.454,-0.226 5.904,-0.226 1.347,0 4.04,0.113 5.801,0.226 v -1.81 c -3.522,0 -4.04,0 -4.04,-2.489 v -10.407 c 0,-5.882 3.626,-9.05 6.941,-9.05 3.211,0 3.832,3.055 3.832,6.222 v 13.235 c 0,2.489 -0.621,2.489 -4.04,2.489 V 291 c 1.761,-0.113 4.455,-0.226 5.801,-0.226 1.347,0 4.04,0.113 5.801,0.226 v -1.81 c -2.693,0 -3.936,0 -4.04,-1.697 v -10.746 c 0,-4.865 0,-6.675 -1.554,-8.711 -0.725,-0.905 -2.486,-2.036 -5.49,-2.036 -3.729,0 -6.111,2.376 -7.561,5.882 V 266 L 281,266.566 v 1.81 c 3.625,0 4.04,0.339 4.04,3.167"
         inkscape:connector-curvature="0"
         style="fill-rule:evenodd" />
      <path
         id="path2866"
         d="m 328.287,272.543 c 0.41,-1.244 1.332,-3.733 4.713,-3.733 V 267 c -1.23,0.113 -2.664,0.226 -3.893,0.226 -1.23,0 -3.587,-0.113 -4.406,-0.226 v 1.81 c 1.844,0 2.459,1.357 2.459,2.376 0,0.565 -0.103,0.791 -0.308,1.357 l -5.225,14.48 -5.738,-15.837 c -0.307,-0.679 -0.307,-0.792 -0.307,-0.905 0,-1.471 1.947,-1.471 2.869,-1.471 V 267 c -1.537,0.113 -4.303,0.226 -5.533,0.226 -1.332,0 -3.381,-0.113 -4.918,-0.226 v 1.81 c 3.176,0 3.381,0.339 4.098,2.036 l 7.275,20.136 c 0.307,0.792 0.41,1.018 1.127,1.018 0.615,0 0.82,-0.452 1.025,-1.018 l 6.762,-18.439"
         inkscape:connector-curvature="0"
         style="fill-rule:evenodd" />
      <path
         id="path2868"
         d="m 338.135,277.127 c 0.295,-8.516 4.43,-9.878 6.103,-9.878 5.021,0 5.513,7.607 5.513,9.878 z m 0,1.135 h 13.684 c 1.083,0 1.181,0 1.181,-1.135 C 353,271.45 350.342,266 344.238,266 338.529,266 334,271.79 334,278.943 c 0,7.607 5.218,13.057 10.829,13.057 6.005,0 8.171,-6.245 8.171,-7.38 0,-0.568 -0.394,-0.681 -0.591,-0.681 -0.492,0 -0.59,0.34 -0.689,0.795 -1.673,5.904 -6.103,5.904 -6.596,5.904 -2.461,0 -4.43,-1.703 -5.611,-3.861 -1.378,-2.725 -1.378,-6.471 -1.378,-8.515"
         inkscape:connector-curvature="0"
         style="fill-rule:evenodd" />
      <path
         id="path2870"
         d="m 360.8,271.543 v 15.158 c 0,2.489 -0.5,2.489 -3.8,2.489 V 291 c 1.7,-0.113 4.2,-0.226 5.6,-0.226 1.3,0 3.9,0.113 5.6,0.226 v -1.81 c -3.4,0 -3.9,0 -3.9,-2.489 v -10.407 c 0,-5.882 3.5,-9.05 6.7,-9.05 3.2,0 3.7,3.055 3.7,6.222 v 13.235 c 0,2.489 -0.5,2.489 -3.9,2.489 V 291 c 1.8,-0.113 4.3,-0.226 5.7,-0.226 1.3,0 3.8,0.113 5.5,0.226 v -1.81 c -2.6,0 -3.8,0 -3.8,-1.697 v -10.746 c 0,-4.865 0,-6.675 -1.6,-8.711 -0.7,-0.905 -2.3,-2.036 -5.2,-2.036 -3.7,0 -6,2.376 -7.4,5.882 V 266 l -7,0.566 v 1.81 c 3.4,0 3.8,0.339 3.8,3.167"
         inkscape:connector-curvature="0"
         style="fill-rule:evenodd" />
      <path
         id="path2872"
         d="m 390.847,268.422 h 7.338 v -1.841 h -7.338 V 256 h -1.223 c -0.102,4.716 -1.63,10.927 -6.624,11.157 v 1.265 h 4.382 v 15.872 c 0,7.016 4.688,7.706 6.522,7.706 3.669,0 5.096,-4.026 5.096,-7.706 v -3.336 h -1.325 v 3.221 c 0,4.256 -1.529,6.441 -3.363,6.441 -3.465,0 -3.465,-5.291 -3.465,-6.211 v -15.987"
         inkscape:connector-curvature="0"
         style="fill-rule:evenodd" />
      <path
         id="path2874"
         d="m 410.402,265.931 -7.196,0.568 v 1.814 c 3.392,0 3.803,0.341 3.803,3.063 v 15.314 c 0,2.495 -0.514,2.495 -4.009,2.495 V 291 c 1.645,-0.113 4.421,-0.227 5.654,-0.227 1.748,0 3.598,0.114 5.346,0.227 v -1.815 c -3.393,0 -3.598,-0.227 -3.598,-2.495 z m 0.205,-9.868 c 0,-1.815 -1.336,-3.063 -2.672,-3.063 -1.645,0 -2.776,1.588 -2.776,3.063 0,1.474 1.131,2.949 2.776,2.949 1.336,0 2.672,-1.134 2.672,-2.949"
         inkscape:connector-curvature="0"
         style="fill-rule:evenodd" />
      <path
         id="path2876"
         d="M 440,279.284 C 440,272.017 434.796,266 428.552,266 422.1,266 417,272.131 417,279.284 417,286.55 422.412,292 428.448,292 434.796,292 440,286.437 440,279.284 Z m -11.448,11.354 c -2.29,0 -4.579,-1.249 -5.932,-3.861 -1.249,-2.498 -1.249,-5.904 -1.249,-7.947 0,-2.271 0,-5.337 1.249,-7.834 1.353,-2.612 3.747,-3.747 5.828,-3.747 2.29,0 4.579,1.249 5.932,3.633 1.353,2.498 1.353,5.79 1.353,7.948 0,2.043 0,5.109 -1.145,7.607 -1.145,2.498 -3.434,4.201 -6.036,4.201"
         inkscape:connector-curvature="0"
         style="fill-rule:evenodd" />
      <path
         id="path2878"
         d="m 447.04,271.543 v 15.158 c 0,2.489 -0.518,2.489 -4.04,2.489 V 291 c 1.865,-0.113 4.454,-0.226 5.801,-0.226 1.346,0 4.04,0.113 5.801,0.226 v -1.81 c -3.419,0 -4.04,0 -4.04,-2.489 v -10.407 c 0,-5.882 3.729,-9.05 7.044,-9.05 3.211,0 3.832,3.055 3.832,6.222 v 13.235 c 0,2.489 -0.621,2.489 -4.04,2.489 V 291 c 1.761,-0.113 4.455,-0.226 5.801,-0.226 1.347,0 4.04,0.113 5.801,0.226 v -1.81 c -2.693,0 -3.936,0 -4.04,-1.697 v -10.746 c 0,-4.865 0,-6.675 -1.554,-8.711 -0.725,-0.905 -2.486,-2.036 -5.49,-2.036 -3.729,0 -6.215,2.376 -7.665,5.882 V 266 L 443,266.566 v 1.81 c 3.625,0 4.04,0.339 4.04,3.167"
         inkscape:connector-curvature="0"
         style="fill-rule:evenodd" />
      <path
         id="path2880"
         d="m 486.822,287.118 c 0.205,2.271 1.534,4.655 3.987,4.655 1.022,0 4.191,-0.795 4.191,-5.45 v -3.179 h -1.329 v 3.179 c 0,3.293 -1.227,3.633 -1.84,3.633 -1.635,0 -1.84,-2.497 -1.84,-2.838 v -11.354 c 0,-2.384 0,-4.541 -1.84,-6.699 -1.942,-2.157 -4.498,-3.065 -6.951,-3.065 -4.191,0 -7.769,2.611 -7.769,6.358 0,1.703 1.022,2.725 2.351,2.725 1.431,0 2.351,-1.135 2.351,-2.611 0,-0.682 -0.204,-2.612 -2.555,-2.612 1.329,-2.043 3.884,-2.611 5.52,-2.611 2.453,0 5.418,2.157 5.418,7.266 v 2.044 c -2.658,0.227 -6.236,0.341 -9.405,2.044 -3.884,1.93 -5.111,4.882 -5.111,7.38 0,4.655 4.907,6.017 8.178,6.017 3.373,0 5.724,-2.271 6.644,-4.882 z m -0.306,-9.31 v 5.677 c 0,5.336 -3.68,7.266 -6.032,7.266 -2.453,0 -4.6,-1.93 -4.6,-4.768 0,-3.18 2.147,-7.835 10.632,-8.175"
         inkscape:connector-curvature="0"
         style="fill-rule:evenodd" />
      <path
         id="path2882"
         d="m 505.1,252 -7.1,0.562 v 1.798 c 3.4,0 3.8,0.337 3.8,3.147 v 29.222 c 0,2.473 -0.5,2.473 -3.8,2.473 V 291 c 1.6,-0.112 4.2,-0.225 5.5,-0.225 1.2,0 3.7,0.113 5.5,0.225 v -1.798 c -3.3,0 -3.9,0 -3.9,-2.473 V 252"
         inkscape:connector-curvature="0"
         style="fill-rule:evenodd" />
      <path
         id="path2884"
         d="m 526,252 v 1.825 h 1.218 c 3.857,0 3.958,0.57 3.958,2.622 v 30.106 c 0,2.052 -0.101,2.622 -3.958,2.622 H 526 V 291 h 18.573 C 552.997,291 560,282.561 560,271.842 560,261.009 553.2,252 544.573,252 Z m 12.078,37.175 c -2.436,0 -2.538,-0.342 -2.538,-2.28 v -30.79 c 0,-1.938 0.102,-2.28 2.538,-2.28 h 5.074 c 3.045,0 6.597,1.254 9.135,5.245 2.232,3.421 2.638,8.325 2.638,12.772 0,6.272 -0.913,9.693 -2.74,12.544 -1.015,1.482 -3.958,4.789 -9.033,4.789 h -5.074"
         inkscape:connector-curvature="0"
         style="fill-rule:evenodd" />
      <path
         id="path2886"
         d="m 565,252 v 1.825 h 1.214 c 3.947,0 4.048,0.57 4.048,2.622 v 30.106 c 0,2.052 -0.101,2.622 -4.048,2.622 H 565 V 291 h 18.518 C 592.018,291 599,282.561 599,271.842 599,261.009 592.119,252 583.518,252 Z m 12.042,37.175 c -2.328,0 -2.429,-0.342 -2.429,-2.28 v -30.79 c 0,-1.938 0.101,-2.28 2.429,-2.28 h 5.059 c 3.137,0 6.578,1.254 9.209,5.245 2.125,3.421 2.63,8.325 2.63,12.772 0,6.272 -1.011,9.693 -2.833,12.544 -1.012,1.482 -3.845,4.789 -8.905,4.789 h -5.16"
         inkscape:connector-curvature="0"
         style="fill-rule:evenodd" />
      <path
         id="path2888"
         d="m 613.796,272.982 h 8.571 C 628.49,272.982 634,268.307 634,262.605 634,257.018 628.898,252 621.959,252 H 604 v 1.825 h 1.224 c 3.878,0 3.98,0.57 3.98,2.622 v 30.106 c 0,2.052 -0.102,2.622 -3.98,2.622 H 604 V 291 c 1.837,-0.228 5.51,-0.228 7.449,-0.228 1.939,0 5.816,0 7.551,0.228 v -1.825 h -1.224 c -3.878,0 -3.98,-0.57 -3.98,-2.622 z m -0.204,-1.482 v -15.395 c 0,-1.938 0.102,-2.28 2.551,-2.28 h 4.49 c 8.061,0 8.061,6.043 8.061,8.78 0,2.737 0,8.895 -8.061,8.895 h -7.041"
         inkscape:connector-curvature="0"
         style="fill-rule:evenodd" />
      <rect
         id="rect2890"
         height="3"
         width="420"
         y="298"
         x="217" />
      <rect
         id="rect2892"
         height="2"
         width="420"
         y="310"
         x="217" />
    </g>
    <g
       id="g2941"
       transform="matrix(0.24371687,0,0,0.28713306,-372.50618,-1.418441)"
       clip-path="url(#clip0-0)"
       style="stroke-width:0.95418054">
      <rect
         id="rect2927"
         height="3"
         width="109"
         y="597"
         x="1528"
         style="stroke-width:0.95418054" />
      <rect
         id="rect2929"
         height="83"
         width="2"
         y="600"
         x="1528"
         style="stroke-width:0.95418054" />
      <path
         id="path2931"
         d="M 1561.84,621.959 H 1568 V 619 c -2.27,0.129 -7.46,0.129 -9.95,0.129 -2.48,0 -7.78,0 -10.05,-0.129 v 2.959 h 6.16 v 37.953 H 1548 V 663 c 2.27,-0.257 7.57,-0.257 10.05,-0.257 2.49,0 7.68,0 9.95,0.257 v -3.088 h -6.16 v -37.953"
         inkscape:connector-curvature="0"
         style="fill-rule:evenodd;stroke-width:0.95418054" />
      <path
         id="path2933"
         d="M 1586.11,621.959 H 1592 V 619 c -2.07,0.129 -7.12,0.129 -9.5,0.129 -2.38,0 -7.43,0 -9.5,-0.129 v 2.959 h 5.89 v 37.953 H 1573 V 663 c 2.07,-0.257 7.12,-0.257 9.5,-0.257 2.38,0 7.43,0 9.5,0.257 v -3.088 h -5.89 v -37.953"
         inkscape:connector-curvature="0"
         style="fill-rule:evenodd;stroke-width:0.95418054" />
      <path
         id="path2935"
         d="M 1610.91,621.959 H 1617 V 619 c -2.17,0.129 -7.5,0.129 -10,0.129 -2.5,0 -7.83,0 -10,-0.129 v 2.959 h 6.2 v 37.953 H 1597 V 663 c 2.17,-0.257 7.5,-0.257 10,-0.257 2.5,0 7.83,0 10,0.257 v -3.088 h -6.09 v -37.953"
         inkscape:connector-curvature="0"
         style="fill-rule:evenodd;stroke-width:0.95418054" />
      <rect
         id="rect2937"
         height="83"
         width="2"
         y="600"
         x="1635"
         style="stroke-width:0.95418054" />
      <rect
         id="rect2939"
         height="2"
         width="109"
         y="683"
         x="1528"
         style="stroke-width:0.95418054" />
    </g>
    <g
       id="g3014"
       transform="matrix(0.25822224,0,0,0.24598331,-176.55505,88.914488)"
       clip-path="url(#clip0-3)">
      <path
         id="path2964"
         d="m 712.214,484.176 c -0.211,-0.823 -0.317,-1.176 -1.161,-1.176 -0.845,0 -1.056,0.353 -1.267,1.176 l -10.874,35.059 c -0.95,3.059 -3.062,3.883 -5.912,4 V 525 c 1.161,0 3.484,-0.118 5.384,-0.118 1.584,0 4.329,0.118 6.018,0.118 v -1.765 c -2.64,0 -3.906,-1.529 -3.906,-3.059 0,-0.117 0,-0.705 0.105,-0.823 l 2.323,-7.765 h 13.091 l 2.745,9.059 c 0.105,0.235 0.211,0.588 0.211,0.824 0,1.764 -2.956,1.764 -4.434,1.764 V 525 c 1.9,-0.118 5.595,-0.118 7.601,-0.118 2.217,0 4.645,0 6.862,0.118 v -1.765 h -0.95 c -3.167,0 -3.906,-0.47 -4.434,-2.353 z m -2.745,6.589 5.912,19.059 h -11.824 z"
         inkscape:connector-curvature="0"
         style="fill-rule:evenodd" />
      <path
         id="path2966"
         d="m 733,485 v 1.877 h 1.29 c 4.083,0 4.191,0.586 4.191,2.698 v 30.85 c 0,2.112 -0.108,2.815 -4.191,2.815 H 733 V 525 h 19.666 C 761.585,525 769,516.32 769,505.293 769,494.267 761.8,485 752.666,485 Z m 12.788,38.24 c -2.579,0 -2.686,-0.469 -2.686,-2.346 v -31.671 c 0,-1.994 0.107,-2.346 2.686,-2.346 h 5.373 c 3.224,0 6.985,1.29 9.672,5.396 2.364,3.519 2.794,8.445 2.794,13.02 0,6.569 -0.967,10.088 -2.902,12.903 -1.074,1.643 -4.191,5.044 -9.564,5.044 h -5.373"
         inkscape:connector-curvature="0"
         style="fill-rule:evenodd" />
      <path
         id="path2968"
         d="m 796.391,501.307 h 7.737 v -1.726 h -7.737 V 489 h -1.417 c 0,4.716 -1.634,10.811 -6.974,11.042 v 1.265 h 4.577 v 15.872 c 0,7.131 5.122,7.821 7.083,7.821 3.814,0 5.34,-4.141 5.34,-7.821 v -3.221 h -1.308 v 3.106 c 0,4.255 -1.634,6.441 -3.705,6.441 -3.596,0 -3.596,-5.176 -3.596,-6.211 v -15.987"
         inkscape:connector-curvature="0"
         style="fill-rule:evenodd" />
      <path
         id="path2970"
         d="M 834,512.226 C 834,504.991 828.57,499 822.054,499 815.321,499 810,505.217 810,512.226 810,519.574 815.647,525 821.946,525 828.57,525 834,519.461 834,512.226 Z m -11.946,11.304 c -2.389,0 -4.778,-1.13 -6.19,-3.73 -1.303,-2.487 -1.303,-5.991 -1.303,-8.026 0,-2.148 0,-5.2 1.303,-7.687 1.412,-2.6 3.91,-3.844 6.082,-3.844 2.389,0 4.778,1.244 6.19,3.731 1.411,2.374 1.411,5.652 1.411,7.8 0,2.035 0,5.087 -1.194,7.574 -1.195,2.6 -3.584,4.182 -6.299,4.182"
         inkscape:connector-curvature="0"
         style="fill-rule:evenodd" />
      <path
         id="path2972"
         d="M 862,512.226 C 862,504.991 856.57,499 849.946,499 843.213,499 838,505.217 838,512.226 838,519.574 843.647,525 849.946,525 856.462,525 862,519.461 862,512.226 Z m -12.054,11.304 c -2.281,0 -4.67,-1.13 -6.082,-3.73 -1.411,-2.487 -1.411,-5.991 -1.411,-8.026 0,-2.148 0,-5.2 1.303,-7.687 1.52,-2.6 4.018,-3.844 6.19,-3.844 2.389,0 4.669,1.244 6.081,3.731 1.412,2.374 1.412,5.652 1.412,7.8 0,2.035 0,5.087 -1.195,7.574 -1.194,2.6 -3.583,4.182 -6.298,4.182"
         inkscape:connector-curvature="0"
         style="fill-rule:evenodd" />
      <path
         id="path2974"
         d="M 873.432,485 865,485.578 v 1.85 c 4.099,0 4.568,0.347 4.568,3.237 v 29.942 c 0,2.659 -0.586,2.659 -4.568,2.659 V 525 c 1.991,0 5.036,-0.116 6.559,-0.116 1.405,0 4.333,0.116 6.441,0.116 v -1.734 c -3.865,0 -4.568,0 -4.568,-2.659 V 485"
         inkscape:connector-curvature="0"
         style="fill-rule:evenodd" />
      <path
         id="path2976"
         d="m 889.607,513.357 c 1.215,0.226 5.743,1.13 5.743,5.2 0,2.939 -1.988,5.2 -6.295,5.2 -4.527,0 -6.515,-3.279 -7.619,-8.027 -0.111,-0.791 -0.221,-1.017 -0.773,-1.017 -0.663,0 -0.663,0.452 -0.663,1.47 v 7.46 c 0,0.905 0,1.357 0.552,1.357 0.331,0 0.331,-0.113 1.436,-1.13 0.11,-0.113 0.11,-0.227 1.104,-1.357 2.429,2.374 4.859,2.487 5.963,2.487 6.405,0 8.945,-3.844 8.945,-7.913 0,-2.939 -1.656,-4.635 -2.319,-5.313 -1.877,-1.809 -3.975,-2.261 -6.295,-2.713 -3.092,-0.678 -6.736,-1.357 -6.736,-4.635 0,-2.035 1.436,-4.296 6.074,-4.296 6.074,0 6.405,5.087 6.515,6.783 0,0.565 0.552,0.565 0.663,0.565 0.662,0 0.662,-0.339 0.662,-1.356 v -5.765 c 0,-0.905 0,-1.357 -0.552,-1.357 -0.331,0 -0.441,0 -1.104,0.678 -0.221,0.226 -0.773,0.792 -0.994,0.905 C 891.816,499 889.607,499 888.724,499 c -6.626,0 -8.724,3.843 -8.724,7.009 0,1.921 0.883,3.504 2.319,4.748 1.767,1.469 3.313,1.808 7.288,2.6"
         inkscape:connector-curvature="0"
         style="fill-rule:evenodd" />
      <path
         id="path2978"
         d="m 924.282,501.307 h 7.846 v -1.726 h -7.846 V 489 h -1.308 c -0.109,4.716 -1.634,10.811 -6.974,11.042 v 1.265 h 4.577 v 15.872 c 0,7.131 5.013,7.821 6.974,7.821 3.923,0 5.449,-4.141 5.449,-7.821 v -3.221 h -1.417 v 3.106 c 0,4.255 -1.634,6.441 -3.596,6.441 -3.705,0 -3.705,-5.176 -3.705,-6.211 v -15.987"
         inkscape:connector-curvature="0"
         style="fill-rule:evenodd" />
      <path
         id="path2980"
         d="m 967.456,505.317 c 0.974,-2.828 2.597,-3.507 4.544,-3.62 V 500 c -1.19,0.113 -2.813,0.113 -4.003,0.113 -1.515,0 -4.003,-0.113 -4.977,-0.113 v 1.697 c 1.948,0.113 3.138,1.131 3.138,2.715 0,0.339 0,0.452 -0.325,1.244 l -4.868,14.48 -5.301,-15.837 c -0.217,-0.679 -0.325,-0.792 -0.325,-1.018 0,-1.584 2.056,-1.584 3.138,-1.584 V 500 c -1.515,0 -4.22,0.113 -5.518,0.113 -1.623,0 -3.246,0 -4.868,-0.113 v 1.697 c 2.055,0 2.921,0.113 3.462,0.905 0.216,0.339 0.865,2.036 1.19,3.054 l -4.652,13.688 -5.085,-15.045 c -0.325,-0.679 -0.325,-0.792 -0.325,-1.018 0,-1.584 2.164,-1.584 3.246,-1.584 V 500 c -1.623,0 -4.652,0.113 -5.95,0.113 -0.217,0 -3.03,0 -4.977,-0.113 v 1.697 c 2.705,0 3.354,0.226 4.003,2.036 l 6.816,20.023 c 0.216,0.791 0.432,1.244 1.082,1.244 0.757,0 0.865,-0.339 1.081,-1.131 l 5.518,-16.064 5.409,16.064 c 0.217,0.678 0.433,1.131 1.082,1.131 0.758,0 0.866,-0.566 1.082,-1.131 l 6.383,-18.552"
         inkscape:connector-curvature="0"
         style="fill-rule:evenodd" />
      <path
         id="path2982"
         d="m 982.402,499.195 -7.196,0.7 v 1.752 c 3.392,0 3.803,0.35 3.803,3.269 v 15.647 c 0,2.686 -0.514,2.686 -4.009,2.686 V 525 c 1.645,0 4.421,-0.117 5.654,-0.117 1.851,0 3.598,0.117 5.346,0.117 v -1.751 c -3.393,0 -3.598,-0.351 -3.598,-2.569 z m 0.205,-10.042 c 0,-1.869 -1.233,-3.153 -2.672,-3.153 -1.645,0 -2.776,1.635 -2.776,3.153 0,1.518 1.131,3.036 2.776,3.036 1.439,0 2.672,-1.168 2.672,-3.036"
         inkscape:connector-curvature="0"
         style="fill-rule:evenodd" />
      <path
         id="path2984"
         d="m 994.532,512 c 0,-9.157 4.531,-11.53 7.518,-11.53 0.44,0 3.98,0 5.86,2.034 -2.22,0.226 -2.55,1.922 -2.55,2.6 0,1.47 1,2.6 2.55,2.6 1.43,0 2.54,-0.904 2.54,-2.6 0,-3.843 -4.2,-6.104 -8.51,-6.104 -6.856,0 -11.94,6.104 -11.94,13.113 0,7.235 5.416,12.887 11.83,12.887 7.4,0 9.17,-6.783 9.17,-7.348 0,-0.565 -0.55,-0.565 -0.66,-0.565 -0.56,0 -0.67,0.226 -0.78,0.565 -1.54,5.2 -5.19,5.878 -7.18,5.878 -2.985,0 -7.848,-2.374 -7.848,-11.53"
         inkscape:connector-curvature="0"
         style="fill-rule:evenodd" />
      <path
         id="path2986"
         d="m 1018.57,510.078 c 0.33,-8.365 4.9,-9.835 6.75,-9.835 5.65,0 6.2,7.687 6.2,9.835 z m 0,1.244 h 15.12 c 1.2,0 1.31,0 1.31,-1.244 0,-5.539 -2.83,-11.078 -9.68,-11.078 -6.31,0 -11.32,5.878 -11.32,12.887 0,7.574 5.77,13.113 11.97,13.113 6.64,0 9.03,-6.33 9.03,-7.348 0,-0.565 -0.44,-0.678 -0.65,-0.678 -0.55,0 -0.66,0.339 -0.66,0.791 -1.95,5.765 -6.85,5.765 -7.39,5.765 -2.72,0 -4.9,-1.695 -6.1,-3.73 -1.63,-2.713 -1.63,-6.443 -1.63,-8.478"
         inkscape:connector-curvature="0"
         style="fill-rule:evenodd" />
      <path
         id="path2988"
         d="m 1047,503.023 c 0,-1.628 -1.36,-3.023 -3.06,-3.023 -1.58,0 -2.94,1.395 -2.94,3.023 0,1.744 1.36,3.14 2.94,3.14 1.7,0 3.06,-1.396 3.06,-3.14 z m 0,18.954 c 0,-1.744 -1.36,-3.14 -3.06,-3.14 -1.58,0 -2.94,1.396 -2.94,3.14 0,1.628 1.36,3.023 2.94,3.023 1.7,0 3.06,-1.395 3.06,-3.023"
         inkscape:connector-curvature="0"
         style="fill-rule:evenodd" />
      <path
         id="path2990"
         d="m 1097.55,466.024 c -0.53,-3.612 -2.78,-6.875 -6.95,-6.875 -3.2,0 -6.73,0.932 -10.9,5.477 -4.38,4.778 -4.7,10.138 -4.7,12.003 0,3.612 2.35,10.371 9.73,10.371 12.71,0 18.27,-19.577 18.27,-27.851 0,-9.322 -4.92,-15.149 -11.54,-15.149 -7.7,0 -10.15,7.575 -10.15,9.206 0,0.816 0.42,2.098 2.03,2.098 1.71,0 2.88,-1.748 2.88,-3.147 0,-1.981 -1.71,-1.981 -2.56,-1.981 2.35,-4.311 6.19,-4.661 7.69,-4.661 3.96,0 7.7,3.03 7.7,10.488 0,2.33 -0.32,5.244 -1.5,10.021 z m -12.61,19.345 c -5.88,0 -5.88,-6.06 -5.88,-6.643 0,-1.515 1.28,-9.672 3.53,-13.168 2.14,-3.263 4.7,-5.127 8.01,-5.127 5.88,0 5.99,6.526 5.99,7.574 0,4.196 -3.42,17.364 -11.65,17.364"
         inkscape:connector-curvature="0"
         style="fill-rule:evenodd" />
      <path
         id="path2992"
         d="m 1123,457.552 h -1.25 c -0.1,0.931 -0.41,3.375 -0.93,3.724 -0.31,0.233 -3.12,0.233 -3.53,0.233 h -6.76 c 3.85,-3.725 5.09,-4.888 7.28,-6.75 2.7,-2.444 5.19,-5.005 5.19,-8.845 0,-4.888 -3.84,-7.914 -8.52,-7.914 -4.47,0 -7.48,3.491 -7.48,7.332 0,1.978 1.56,2.211 1.87,2.211 0.94,0 1.97,-0.698 1.97,-2.095 0,-0.814 -0.31,-2.211 -2.18,-2.211 1.15,-2.909 3.64,-3.724 5.3,-3.724 3.64,0 5.51,3.142 5.51,6.401 0,3.608 -2.18,6.401 -3.43,7.797 l -8.73,9.66 C 1107,463.72 1107,463.836 1107,465 h 14.96 l 1.04,-7.448"
         inkscape:connector-curvature="0"
         style="fill-rule:evenodd" />
      <path
         id="path2994"
         d="m 1142.55,461.035 c 0,-1.035 -1.08,-1.035 -1.73,-0.92 l -6.8,0.345 c -0.75,0 -1.73,0.115 -1.73,1.726 0,1.035 0.98,1.035 1.41,1.035 0.65,0 1.62,0 2.26,0.115 l -4.96,21.629 c 0,0.805 0.65,1.035 1.19,1.035 h 1.51 c 5.83,-1.035 12.95,-3.911 18.99,-9.204 7.12,-6.442 8.31,-13.575 8.31,-14.265 0,-1.266 -0.86,-2.531 -2.48,-2.531 -0.76,0 -2.81,0.46 -3.56,3.106 -1.3,4.717 -3.35,8.744 -6.59,12.31 -1.72,1.726 -5.5,5.522 -10.9,7.478 l 5.08,-21.859"
         inkscape:connector-curvature="0"
         style="fill-rule:evenodd" />
      <rect
         id="rect2996"
         height="2"
         width="90"
         y="509"
         x="1073" />
      <path
         id="path2998"
         d="m 1098.46,544.457 c -0.53,-3.539 -2.66,-6.734 -6.81,-6.734 -3.19,0 -6.71,0.913 -10.86,5.364 -4.36,4.679 -4.79,10.043 -4.79,11.755 0,3.538 2.34,10.158 9.79,10.158 12.67,0 18.21,-19.174 18.21,-27.277 0,-9.016 -5,-14.723 -11.5,-14.723 -7.66,0 -10.11,7.418 -10.11,9.016 0,0.799 0.42,1.941 2.02,1.941 1.7,0 2.88,-1.712 2.88,-2.968 0,-2.054 -1.71,-2.054 -2.56,-2.054 2.34,-4.223 6.07,-4.565 7.67,-4.565 3.83,0 7.55,2.967 7.55,10.385 0,2.169 -0.31,5.022 -1.38,9.702 z m -12.45,18.945 c -5.86,0 -5.86,-5.82 -5.86,-6.391 0,-1.598 1.28,-9.587 3.52,-13.011 2.12,-3.196 4.68,-5.022 7.98,-5.022 5.75,0 5.86,6.392 5.86,7.533 0,4.109 -3.41,16.891 -11.5,16.891"
         inkscape:connector-curvature="0"
         style="fill-rule:evenodd" />
      <path
         id="path3000"
         d="m 1124,539.552 h -1.24 c -0.1,0.931 -0.51,3.375 -0.93,3.724 -0.31,0.233 -3.09,0.233 -3.61,0.233 h -6.61 c 3.82,-3.725 5.06,-4.888 7.23,-6.75 2.68,-2.444 5.16,-5.005 5.16,-8.845 0,-4.888 -3.82,-7.914 -8.46,-7.914 -4.44,0 -7.54,3.608 -7.54,7.332 0,1.978 1.55,2.211 1.96,2.211 0.83,0 1.86,-0.698 1.86,-2.095 0,-0.814 -0.21,-2.211 -2.07,-2.211 1.14,-2.909 3.51,-3.724 5.27,-3.724 3.61,0 5.47,3.142 5.47,6.401 0,3.608 -2.27,6.401 -3.41,7.797 l -8.67,9.66 C 1108,545.72 1108,545.836 1108,547 h 14.86 l 1.14,-7.448"
         inkscape:connector-curvature="0"
         style="fill-rule:evenodd" />
      <path
         id="path3002"
         d="m 1152.18,555.696 c 0,1.034 0,1.264 -0.77,2.413 -2.21,3.447 -4.97,4.021 -6.62,4.021 -3.42,0 -6.73,-3.332 -6.73,-10.916 0,-8.158 4.08,-10.916 7.39,-10.916 4.19,0 6.73,4.596 6.73,7.469 z m 0.77,-13.1 c -1.87,-2.872 -4.96,-4.596 -8.27,-4.596 -8.05,0 -13.68,5.171 -13.68,13.099 0,8.159 5.52,13.1 13.24,13.1 2.65,0 5.18,-0.805 7.72,-3.103 v 11.146 h -3.86 V 575 c 1.54,-0.115 4.85,-0.23 6.95,-0.23 2.1,0 5.41,0.115 6.95,0.23 v -2.758 h -3.86 V 538 h -2.21 l -2.98,4.596"
         inkscape:connector-curvature="0"
         style="fill-rule:evenodd" />
      <path
         id="path3004"
         d="m 1266,496.959 c 0,-7.405 -3.04,-12.959 -9.67,-12.959 -5.65,0 -10.43,4.859 -10.75,5.207 -4.35,4.628 -5.98,9.719 -5.98,9.834 0,0.347 0.22,0.463 0.54,0.463 0.98,0 1.85,-0.578 2.72,-1.273 0.98,-0.694 0.98,-0.81 1.63,-2.198 0.43,-1.157 1.74,-3.934 3.69,-6.364 1.31,-1.619 2.39,-2.429 4.57,-2.429 5.21,0 8.58,4.628 8.58,12.148 0,11.802 -7.82,23.488 -17.82,23.488 -7.71,0 -11.95,-6.595 -11.95,-14.81 0,-7.868 3.8,-16.545 11.74,-21.521 0.54,-0.347 2.17,-1.388 2.17,-2.082 0,-0.463 -0.44,-0.463 -0.55,-0.463 -1.95,0 -17.92,9.256 -17.92,26.496 0,8.099 3.91,15.504 12.93,15.504 10.54,0 26.07,-11.339 26.07,-29.041"
         inkscape:connector-curvature="0"
         style="fill:#ff0000;fill-rule:evenodd" />
      <path
         id="path3006"
         d="m 1286,538.419 c 0,-0.233 0,-0.349 -0.83,-1.279 -6.47,-7.322 -8.14,-18.248 -8.14,-27.198 0,-10.112 1.98,-20.108 8.34,-27.431 0.63,-0.697 0.63,-0.814 0.63,-0.93 0,-0.465 -0.21,-0.581 -0.52,-0.581 -0.52,0 -5.11,3.952 -8.25,11.275 -2.6,6.392 -3.23,12.785 -3.23,17.667 0,4.533 0.52,11.623 3.44,18.132 3.13,7.09 7.52,10.926 8.04,10.926 0.31,0 0.52,-0.232 0.52,-0.581"
         inkscape:connector-curvature="0"
         style="fill:#ff0000;fill-rule:evenodd" />
      <path
         id="path3008"
         d="m 1294.11,520.991 c -0.1,0.802 -0.42,2.176 -0.42,2.405 0,1.031 0.75,1.604 1.5,1.604 0.64,0 1.61,-0.458 2.04,-1.604 0,-0.114 0.64,-2.863 0.97,-4.237 l 1.18,-5.155 c 0.32,-1.259 0.64,-2.519 0.96,-3.894 0.22,-0.916 0.65,-2.634 0.65,-2.863 0.75,-1.718 3.65,-6.987 8.7,-6.987 2.47,0 2.9,2.176 2.9,4.009 0,3.55 -2.58,10.881 -3.44,13.401 -0.54,1.26 -0.54,1.947 -0.54,2.634 0,2.634 1.83,4.696 4.41,4.696 5.05,0 6.98,-8.361 6.98,-8.819 0,-0.573 -0.43,-0.573 -0.64,-0.573 -0.54,0 -0.54,0.114 -0.76,1.031 -1.07,3.894 -2.9,7.101 -5.47,7.101 -0.97,0 -1.29,-0.573 -1.29,-1.947 0,-1.374 0.43,-2.749 0.96,-4.009 0.97,-3.092 3.23,-9.392 3.23,-12.599 0,-3.894 -2.26,-6.185 -6.13,-6.185 -4.83,0 -7.51,3.665 -8.37,5.04 -0.22,-3.207 -2.47,-5.04 -4.94,-5.04 -2.48,0 -3.44,2.291 -3.98,3.322 -0.86,1.947 -1.61,5.268 -1.61,5.497 0,0.573 0.54,0.573 0.64,0.573 0.54,0 0.54,0 0.86,-1.26 0.97,-4.123 2.04,-6.872 3.98,-6.872 1.07,0 1.61,0.802 1.61,2.634 0,1.26 -0.11,1.833 -0.86,4.811 l -3.12,13.286"
         inkscape:connector-curvature="0"
         style="fill:#ff0000;fill-rule:evenodd" />
      <path
         id="path3010"
         d="m 1332.07,487.59 c 2.98,0 5,2.109 5,6.561 0,5.037 -2.66,6.56 -4.78,6.56 -1.49,0 -4.78,-0.468 -6.27,-2.929 1.7,0 2.12,-1.405 2.12,-2.226 0,-1.288 -0.95,-2.225 -2.02,-2.225 -1.06,0 -2.12,0.702 -2.12,2.343 0,3.866 3.82,6.326 8.39,6.326 5.1,0 8.61,-3.749 8.61,-7.849 0,-3.164 -2.34,-6.444 -6.38,-7.381 3.83,-1.523 5.32,-4.569 5.32,-7.029 0,-3.281 -3.4,-5.741 -7.55,-5.741 -4.03,0 -7.22,2.226 -7.22,5.506 0,1.406 0.85,2.226 1.91,2.226 1.17,0 1.91,-0.937 1.91,-2.109 0,-1.171 -0.74,-2.108 -1.91,-2.108 1.28,-1.875 3.83,-2.226 5.21,-2.226 1.7,0 4.03,0.82 4.03,4.452 0,1.64 -0.53,3.514 -1.48,4.803 -1.28,1.523 -2.23,1.64 -4.15,1.757 -0.95,0.117 -0.95,0.117 -1.16,0.117 -0.11,0 -0.32,0.118 -0.32,0.586 0,0.586 0.32,0.586 0.95,0.586 h 1.91"
         inkscape:connector-curvature="0"
         style="fill:#ff0000;fill-rule:evenodd" />
      <path
         id="path3012"
         d="m 1361,509.942 c 0,-4.533 -0.62,-11.507 -3.41,-18.016 -3.11,-7.207 -7.56,-10.926 -8.07,-10.926 -0.31,0 -0.52,0.232 -0.52,0.581 0,0.116 0,0.233 1.03,1.279 5.07,5.811 7.97,14.994 7.97,27.082 0,9.996 -1.86,20.108 -8.28,27.431 -0.72,0.697 -0.72,0.813 -0.72,1.046 0,0.349 0.21,0.581 0.52,0.581 0.51,0 5.17,-3.952 8.17,-11.391 2.69,-6.276 3.31,-12.785 3.31,-17.667"
         inkscape:connector-curvature="0"
         style="fill:#ff0000;fill-rule:evenodd" />
    </g>
    <path
       style="fill:none;stroke:#000000;stroke-width:2;stroke-linecap:butt;stroke-linejoin:miter;stroke-miterlimit:4;stroke-dasharray:none;stroke-opacity:1"
       d="m 153.55811,83.296585 c 15.50067,0 31.00133,0 46.502,0"
       id="path2316-0"
       inkscape:connector-curvature="0"
       inkscape:path-effect="#path-effect2318-4"
       inkscape:original-d="m 153.55811,83.296585 h 46.502" />
    <path
       style="fill:none;stroke:#000000;stroke-width:2;stroke-linecap:butt;stroke-linejoin:miter;stroke-miterlimit:4;stroke-dasharray:none;stroke-opacity:1"
       d="m 199.27273,215.96692 c 0,-44.54733 0,-89.09467 0,-133.642"
       id="path2324-7"
       inkscape:connector-curvature="0"
       inkscape:path-effect="#path-effect2326-8"
       inkscape:original-d="M 199.27273,215.96692 V 82.32492" />
    <path
       style="fill:none;stroke:#000000;stroke-width:2;stroke-linecap:butt;stroke-linejoin:miter;stroke-miterlimit:4;stroke-dasharray:none;stroke-opacity:1;marker-start:url(#Arrow2Sstart-9)"
       d="m 179.91667,214.97918 c 6.61458,0 13.22917,0 19.84375,0"
       id="path2316-1"
       inkscape:connector-curvature="0"
       inkscape:path-effect="#path-effect2318-0"
       inkscape:original-d="m 179.91667,214.97918 h 19.84375" />
  </g>
</svg>
